<?xml version="1.0" encoding="UTF-8" standalone="no"?>
<!-- Created with Inkscape (http://www.inkscape.org/) -->

<svg
   version="1.1"
   id="svg2"
   width="666.66669"
   height="491.67999"
   viewBox="0 0 666.66669 491.67999"
   sodipodi:docname="7207003.eps"
   xmlns:inkscape="http://www.inkscape.org/namespaces/inkscape"
   xmlns:sodipodi="http://sodipodi.sourceforge.net/DTD/sodipodi-0.dtd"
   xmlns="http://www.w3.org/2000/svg"
   xmlns:svg="http://www.w3.org/2000/svg">
  <defs
     id="defs6" />
  <sodipodi:namedview
     id="namedview4"
     pagecolor="#ffffff"
     bordercolor="#000000"
     borderopacity="0.25"
     inkscape:showpageshadow="2"
     inkscape:pageopacity="0.0"
     inkscape:pagecheckerboard="0"
     inkscape:deskcolor="#d1d1d1" />
  <g
     id="g8"
     inkscape:groupmode="layer"
     inkscape:label="ink_ext_XXXXXX"
     transform="matrix(1.3333333,0,0,-1.3333333,0,491.68)">
    <g
       id="g10"
       transform="scale(0.1)">
      <path
         d="m 4167.79,252.199 h 331.22 v -2.5 h -331.22 v 2.5"
         style="fill:#e7e8e5;fill-opacity:1;fill-rule:nonzero;stroke:none"
         id="path12" />
      <path
         d="m 3225.27,225.07 h 86.93 v -2.5 h -86.93 v 2.5"
         style="fill:#e7e8e5;fill-opacity:1;fill-rule:nonzero;stroke:none"
         id="path14" />
      <path
         d="m 3965.86,345.059 h 191.92 v -2.5 h -191.92 v 2.5"
         style="fill:#e7e8e5;fill-opacity:1;fill-rule:nonzero;stroke:none"
         id="path16" />
      <path
         d="m 524.59,325.762 h 431.934 v 2.5 H 524.59 Z"
         style="fill:#e7e8e5;fill-opacity:1;fill-rule:nonzero;stroke:none"
         id="path18" />
      <path
         d="m 1045.56,325.762 h 63.332 v 2.5 h -63.332 z"
         style="fill:#e7e8e5;fill-opacity:1;fill-rule:nonzero;stroke:none"
         id="path20" />
      <path
         d="m 1314.71,283.539 h 936.758 v 2.5 H 1314.71 Z"
         style="fill:#e7e8e5;fill-opacity:1;fill-rule:nonzero;stroke:none"
         id="path22" />
      <path
         d="m 439.152,3685.12 c -30.097,0 -54.582,-24.48 -54.582,-54.58 V 916.23 c 0,-30.101 24.485,-54.582 54.582,-54.582 H 2370.14 c 30.09,0 54.57,24.481 54.57,54.582 v 2714.31 c 0,30.1 -24.48,54.58 -54.57,54.58 H 439.152 M 2370.14,859.148 H 439.152 c -31.476,0 -57.082,25.602 -57.082,57.082 v 2714.31 c 0,31.48 25.606,57.08 57.082,57.08 H 2370.14 c 31.46,0 57.07,-25.6 57.07,-57.08 V 916.23 c 0,-31.48 -25.61,-57.082 -57.07,-57.082"
         style="fill:#e7e8e5;fill-opacity:1;fill-rule:nonzero;stroke:none"
         id="path24" />
      <path
         d="m 2602.12,3685.12 c -30.09,0 -54.57,-24.48 -54.57,-54.58 V 916.23 c 0,-30.101 24.48,-54.582 54.57,-54.582 H 4533.1 c 30.1,0 54.59,24.481 54.59,54.582 v 2714.31 c 0,30.1 -24.49,54.58 -54.59,54.58 H 2602.12 M 4533.1,859.148 H 2602.12 c -31.47,0 -57.07,25.602 -57.07,57.082 v 2714.31 c 0,31.48 25.6,57.08 57.07,57.08 H 4533.1 c 31.48,0 57.09,-25.6 57.09,-57.08 V 916.23 c 0,-31.48 -25.61,-57.082 -57.09,-57.082"
         style="fill:#e7e8e5;fill-opacity:1;fill-rule:nonzero;stroke:none"
         id="path26" />
      <path
         d="m 0,410.66 h 5000 v 2.5 H 0 Z"
         style="fill:#e7e8e5;fill-opacity:1;fill-rule:nonzero;stroke:none"
         id="path28" />
      <path
         d="m 837.219,1380.66 c 0,12.49 -7.125,23.22 -17.461,28.66 7.883,0.24 14.211,6.66 14.211,14.6 0,8.08 -6.551,14.64 -14.637,14.64 8.086,0 14.637,6.55 14.637,14.63 0,8.09 -6.551,14.64 -14.637,14.64 8.086,0 14.637,6.55 14.637,14.64 0,8.08 -6.551,14.64 -14.637,14.64 h -1.137 c 15.899,41.31 26.961,144.44 27.899,185.41 2.363,102.95 -18.535,409.85 -41.403,409.85 -22.863,0 -43.761,-306.9 -41.398,-409.85 0.937,-40.97 12,-144.1 27.898,-185.41 h -1.136 c -8.082,0 -14.637,-6.56 -14.637,-14.64 0,-8.09 6.555,-14.64 14.637,-14.64 -8.082,0 -14.637,-6.55 -14.637,-14.64 0,-8.08 6.555,-14.63 14.637,-14.63 -8.082,0 -14.637,-6.56 -14.637,-14.64 0,-7.94 6.332,-14.37 14.211,-14.6 -10.336,-5.44 -17.461,-16.17 -17.461,-28.66 0,-17.97 14.562,-32.53 32.523,-32.53 17.965,0 32.528,14.56 32.528,32.53"
         style="fill:#e7e8e5;fill-opacity:1;fill-rule:nonzero;stroke:none"
         id="path30" />
      <path
         d="m 837.219,566.172 c 0,12.488 -7.125,23.219 -17.461,28.656 7.883,0.231 14.211,6.66 14.211,14.602 0,8.082 -6.551,14.64 -14.637,14.64 8.086,0 14.637,6.551 14.637,14.629 0,8.09 -6.551,14.641 -14.637,14.641 8.086,0 14.637,6.551 14.637,14.64 0,8.079 -6.551,14.641 -14.637,14.641 h -4.152 c 18.336,70.359 32.91,302.457 30.914,389.349 -0.961,41.95 -12.535,149.15 -29.055,188.33 h 2.293 c 8.086,0 14.637,6.56 14.637,14.64 0,8.08 -6.551,14.64 -14.637,14.64 8.086,0 14.637,6.55 14.637,14.64 0,8.08 -6.551,14.63 -14.637,14.63 8.086,0 14.637,6.56 14.637,14.64 0,8.08 -6.551,14.64 -14.637,14.64 h -14.641 -14.636 c -8.082,0 -14.637,-6.56 -14.637,-14.64 0,-8.08 6.555,-14.64 14.637,-14.64 -8.082,0 -14.637,-6.55 -14.637,-14.63 0,-8.09 6.555,-14.64 14.637,-14.64 -8.082,0 -14.637,-6.56 -14.637,-14.64 0,-8.08 6.555,-14.64 14.637,-14.64 h 2.293 c -16.52,-39.18 -28.094,-146.38 -29.055,-188.33 -1.992,-86.892 12.574,-318.99 30.914,-389.349 h -4.152 c -8.082,0 -14.637,-6.562 -14.637,-14.641 0,-8.089 6.555,-14.64 14.637,-14.64 -8.082,0 -14.637,-6.551 -14.637,-14.641 0,-8.078 6.555,-14.629 14.637,-14.629 -8.082,0 -14.637,-6.558 -14.637,-14.64 0,-7.942 6.332,-14.371 14.211,-14.602 -10.336,-5.437 -17.461,-16.168 -17.461,-28.656 0,-17.973 14.562,-32.531 32.523,-32.531 17.965,0 32.528,14.558 32.528,32.531"
         style="fill:#e7e8e5;fill-opacity:1;fill-rule:nonzero;stroke:none"
         id="path32" />
      <path
         d="M 933.363,445.809 H 819.332 c 8.086,0 14.637,6.562 14.637,14.64 0,8.082 -6.551,14.641 -14.637,14.641 8.086,0 14.637,6.551 14.637,14.64 0,8.079 -6.551,14.629 -14.637,14.629 8.086,0 14.637,6.559 14.637,14.641 0,8.082 -6.551,14.641 -14.637,14.641 h -14.641 -14.632 c -8.086,0 -14.641,-6.559 -14.641,-14.641 0,-8.082 6.555,-14.641 14.641,-14.641 -8.086,0 -14.641,-6.55 -14.641,-14.629 0,-8.089 6.555,-14.64 14.641,-14.64 -8.086,0 -14.641,-6.559 -14.641,-14.641 0,-8.078 6.555,-14.64 14.641,-14.64 H 672.18 c -20.371,0 -36.883,-16.508 -36.883,-36.879 H 970.25 c 0,20.371 -16.516,36.879 -36.887,36.879"
         style="fill:#e7e8e5;fill-opacity:1;fill-rule:nonzero;stroke:none"
         id="path34" />
      <path
         d="M 883.699,2038.37 H 721.844 l 32.246,331.57 h 97.363 l 32.246,-331.57"
         style="fill:#f3f2f1;fill-opacity:1;fill-rule:nonzero;stroke:none"
         id="path36" />
      <path
         d="m 843.082,2003.88 h -80.617 c -16.055,0 -30.512,9.72 -36.574,24.58 l -4.047,9.91 h 161.855 l -4.043,-9.91 c -6.066,-14.86 -20.523,-24.58 -36.574,-24.58"
         style="fill:#dadbd8;fill-opacity:1;fill-rule:nonzero;stroke:none"
         id="path38" />
      <path
         d="m 681.227,2003.88 h -80.618 c -16.054,0 -30.511,9.72 -36.574,24.58 l -4.047,9.91 h 161.856 l -4.043,-9.91 c -6.067,-14.86 -20.524,-24.58 -36.574,-24.58"
         style="fill:#f3f2f1;fill-opacity:1;fill-rule:nonzero;stroke:none"
         id="path40" />
      <path
         d="m 1004.94,2003.88 h -80.62 c -16.05,0 -30.507,9.72 -36.574,24.58 l -4.047,9.91 h 161.861 l -4.05,-9.91 c -6.06,-14.86 -20.52,-24.58 -36.57,-24.58"
         style="fill:#f3f2f1;fill-opacity:1;fill-rule:nonzero;stroke:none"
         id="path42" />
      <path
         d="M 721.844,2038.37 H 559.988 l 102.758,331.57 h 91.344 l -32.246,-331.57"
         style="fill:#dadbd8;fill-opacity:1;fill-rule:nonzero;stroke:none"
         id="path44" />
      <path
         d="m 883.699,2038.37 h 161.861 l -102.759,331.57 h -91.348 l 32.246,-331.57"
         style="fill:#dadbd8;fill-opacity:1;fill-rule:nonzero;stroke:none"
         id="path46" />
      <path
         d="m 1218.82,777.961 h 749.738 v 2543.31 H 1218.82 Z"
         style="fill:#fafaf9;fill-opacity:1;fill-rule:nonzero;stroke:none"
         id="path48" />
      <path
         d="m 1856.92,3321.27 h -43.81 L 1551.61,777.961 h 43.81 l 261.5,2543.309"
         style="fill:#f3f2f1;fill-opacity:1;fill-rule:nonzero;stroke:none"
         id="path50" />
      <path
         d="m 1214.03,3319.02 h 762.289 v 34.5 H 1214.03 Z"
         style="fill:#e2e2e0;fill-opacity:1;fill-rule:nonzero;stroke:none"
         id="path52" />
      <path
         d="m 1214.03,735.711 h 762.289 v 44.4883 H 1214.03 Z"
         style="fill:#e2e2e0;fill-opacity:1;fill-rule:nonzero;stroke:none"
         id="path54" />
      <path
         d="m 1242.53,743.711 h 700.43 V 3353.52 H 1242.53 V 743.711 m 763.42,-62.992 H 1179.53 V 3416.52 h 826.42 V 680.719"
         style="fill:#ededeb;fill-opacity:1;fill-rule:nonzero;stroke:none"
         id="path56" />
      <path
         d="m 2126.08,777.961 h 749.738 v 2543.31 H 2126.08 Z"
         style="fill:#fafaf9;fill-opacity:1;fill-rule:nonzero;stroke:none"
         id="path58" />
      <path
         d="M 2667.86,3321.27 H 2428.83 L 2167.33,777.961 h 239.03 l 261.5,2543.309"
         style="fill:#f3f2f1;fill-opacity:1;fill-rule:nonzero;stroke:none"
         id="path60" />
      <path
         d="m 2883.58,3319.02 h -762.3 v 34.5 h 762.3 v -34.5"
         style="fill:#e2e2e0;fill-opacity:1;fill-rule:nonzero;stroke:none"
         id="path62" />
      <path
         d="m 2883.58,735.711 h -762.3 v 44.488 h 762.3 v -44.488"
         style="fill:#e2e2e0;fill-opacity:1;fill-rule:nonzero;stroke:none"
         id="path64" />
      <path
         d="m 2149.79,743.711 h 700.42 V 3353.52 H 2149.79 V 743.711 m 763.42,-62.992 H 2086.79 V 3416.52 h 826.42 V 680.719"
         style="fill:#ededeb;fill-opacity:1;fill-rule:nonzero;stroke:none"
         id="path66" />
      <path
         d="m 3033.34,777.961 h 749.742 v 2543.31 H 3033.34 Z"
         style="fill:#fafaf9;fill-opacity:1;fill-rule:nonzero;stroke:none"
         id="path68" />
      <path
         d="m 3446.2,3321.27 h -43.8 L 3140.9,777.961 h 43.8 l 261.5,2543.309"
         style="fill:#f3f2f1;fill-opacity:1;fill-rule:nonzero;stroke:none"
         id="path70" />
      <path
         d="m 3790.84,3319.02 h -762.3 v 34.5 h 762.3 v -34.5"
         style="fill:#e2e2e0;fill-opacity:1;fill-rule:nonzero;stroke:none"
         id="path72" />
      <path
         d="m 3028.54,735.711 h 762.301 v 44.4883 H 3028.54 Z"
         style="fill:#e2e2e0;fill-opacity:1;fill-rule:nonzero;stroke:none"
         id="path74" />
      <path
         d="m 3057.04,743.711 h 700.43 V 3353.52 H 3057.04 V 743.711 m 763.43,-62.992 H 2994.04 V 3416.52 h 826.43 V 680.719"
         style="fill:#ededeb;fill-opacity:1;fill-rule:nonzero;stroke:none"
         id="path76" />
      <path
         d="m 4330.32,2651.26 h -325.06 v 422.31 h 325.06 v -422.31"
         style="fill:#f3f2f1;fill-opacity:1;fill-rule:nonzero;stroke:none"
         id="path78" />
      <path
         d="m 4305.31,2683.75 h -275.04 v 357.34 h 275.04 v -357.34"
         style="fill:#e2e2e0;fill-opacity:1;fill-rule:nonzero;stroke:none"
         id="path80" />
      <path
         d="m 4256.63,2747 h -177.68 v 230.84 h 177.68 V 2747"
         style="fill:#fafaf9;fill-opacity:1;fill-rule:nonzero;stroke:none"
         id="path82" />
      <path
         d="m 4330.32,1621.05 h -325.06 v 422.31 h 325.06 v -422.31"
         style="fill:#dadbd8;fill-opacity:1;fill-rule:nonzero;stroke:none"
         id="path84" />
      <path
         d="m 4305.31,1653.54 h -275.04 v 357.33 h 275.04 v -357.33"
         style="fill:#f3f2f1;fill-opacity:1;fill-rule:nonzero;stroke:none"
         id="path86" />
      <path
         d="m 4256.63,1716.79 h -177.68 v 230.84 h 177.68 v -230.84"
         style="fill:#dadbd8;fill-opacity:1;fill-rule:nonzero;stroke:none"
         id="path88" />
      <path
         d="m 4300.88,2347.31 c 0,-107.68 -59.59,-194.97 -133.09,-194.97 -73.5,0 -133.09,87.29 -133.09,194.97 0,107.69 59.59,194.98 133.09,194.98 73.5,0 133.09,-87.29 133.09,-194.98"
         style="fill:#f3f2f1;fill-opacity:1;fill-rule:nonzero;stroke:none"
         id="path90" />
      <path
         d="m 4263.95,2347.31 c 0,-77.8 -43.05,-140.87 -96.16,-140.87 -53.11,0 -96.16,63.07 -96.16,140.87 0,77.81 43.05,140.88 96.16,140.88 53.11,0 96.16,-63.07 96.16,-140.88"
         style="fill:#e7e8e5;fill-opacity:1;fill-rule:nonzero;stroke:none"
         id="path92" />
      <path
         d="m 4235.79,2347.31 c 0,-55.01 -30.45,-99.61 -68,-99.61 -37.55,0 -68,44.6 -68,99.61 0,55.02 30.45,99.62 68,99.62 37.55,0 68,-44.6 68,-99.62"
         style="fill:#fafaf9;fill-opacity:1;fill-rule:nonzero;stroke:none"
         id="path94" />
      <path
         d="M 4390.67,113.238 C 4390.67,50.6992 3522.6,0 2451.78,0 1380.96,0 512.891,50.6992 512.891,113.238 c 0,62.532 868.069,113.231 1938.889,113.231 1070.82,0 1938.89,-50.699 1938.89,-113.231"
         style="fill:#f3f2f1;fill-opacity:1;fill-rule:nonzero;stroke:none"
         id="path96" />
      <path
         d="m 940.902,200.391 h 841.77 v 1266.45 h -841.77 z"
         style="fill:#406fbf;fill-opacity:1;fill-rule:nonzero;stroke:none"
         id="path98" />
      <path
         d="m 1782.67,200.391 h -61.77 v 0.109 h -713.33 l 0.01,-0.109 H 940.902 V 1466.84 h 415.818 l 0.12,-1.37 h 231.08 194.75 V 743.711 680.719 413.16 v -2.5 -124.621 -2.5 -83.148 m -775.1,182.629 v 0 h 713.33 v 307.55 h -304.31 l 0.01,0.008 H 1311.88 V 690.57 H 1007.57 V 383.02 m 0,341.152 v 0 h 713.33 v 307.548 h -304.31 0.01 -104.72 v 0 H 1007.57 V 724.172 m 0,341.138 v 0 h 713.33 v 307.56 h -713.33 v -307.56"
         style="fill:#a4c3e9;fill-opacity:1;fill-rule:nonzero;stroke:none"
         id="path100" />
      <path
         d="m 1782.67,200.391 h 181.566 v 1266.45 H 1782.67 Z"
         style="fill:#406fbf;fill-opacity:1;fill-rule:nonzero;stroke:none"
         id="path102" />
      <path
         d="M 1964.24,200.391 H 1782.67 V 1465.47 h 61.67 l -0.12,1.37 h 120.02 V 680.719 413.16 v -2.5 -124.621 -2.5 -83.148"
         style="fill:#6d97d6;fill-opacity:1;fill-rule:nonzero;stroke:none"
         id="path104" />
      <path
         d="m 1007.57,1065.31 h 713.328 v 307.563 H 1007.57 Z"
         style="fill:#406fbf;fill-opacity:1;fill-rule:nonzero;stroke:none"
         id="path106" />
      <path
         d="m 1007.57,724.172 h 713.328 v 307.547 H 1007.57 Z"
         style="fill:#406fbf;fill-opacity:1;fill-rule:nonzero;stroke:none"
         id="path108" />
      <path
         d="m 1007.57,383.02 h 713.328 V 690.571 H 1007.57 Z"
         style="fill:#406fbf;fill-opacity:1;fill-rule:nonzero;stroke:none"
         id="path110" />
      <path
         d="m 1720.9,1065.31 h -713.33 v 307.56 h 713.33 v -307.56 m -409.02,307.56 3.59,-41 c 1.19,-13.52 12.51,-23.9 26.09,-23.9 h 45.35 c 13.58,0 24.9,10.38 26.09,23.9 l 3.6,41 h -104.72"
         style="fill:#6d97d6;fill-opacity:1;fill-rule:nonzero;stroke:none"
         id="path112" />
      <path
         d="m 1720.9,724.172 h -713.33 v 307.548 h 304.31 l 3.59,-41.001 c 1.19,-13.52 12.51,-23.891 26.09,-23.891 h 45.35 c 13.58,0 24.9,10.371 26.09,23.891 l 3.59,41.001 H 1720.9 V 724.172"
         style="fill:#6d97d6;fill-opacity:1;fill-rule:nonzero;stroke:none"
         id="path114" />
      <path
         d="m 1720.9,383.02 h -713.33 v 307.55 h 304.31 l 3.59,-40.988 c 1.19,-13.531 12.51,-23.902 26.09,-23.902 h 45.35 c 13.58,0 24.9,10.371 26.09,23.902 l 3.59,40.988 H 1720.9 V 383.02"
         style="fill:#6d97d6;fill-opacity:1;fill-rule:nonzero;stroke:none"
         id="path116" />
      <path
         d="m 1720.9,137.16 h -703.33 l -10,63.34 h 713.33 v -63.34"
         style="fill:#406fbf;fill-opacity:1;fill-rule:nonzero;stroke:none"
         id="path118" />
      <path
         d="m 1720.9,137.16 h -703.33 l -10,63.34 h 713.33 v -0.109 -63.231"
         style="fill:#6d97d6;fill-opacity:1;fill-rule:nonzero;stroke:none"
         id="path120" />
      <path
         d="m 1890.9,137.16 h -170 v 63.34 h 180 l -10,-63.34"
         style="fill:#406fbf;fill-opacity:1;fill-rule:nonzero;stroke:none"
         id="path122" />
      <path
         d="m 1356.84,1465.47 h 293.88 l -32.6,372.7 h -293.88 l 32.6,-372.7"
         style="fill:#17282f;fill-opacity:1;fill-rule:nonzero;stroke:none"
         id="path124" />
      <path
         d="m 1587.92,1465.47 h -231.08 l -32.6,372.7 h 293.88 l 14.91,-170.5 h -29.96 l -11.59,132.5 h -233.96 l 25.96,-296.7 h 201.12 l 3.32,-38"
         style="fill:#849193;fill-opacity:1;fill-rule:nonzero;stroke:none"
         id="path126" />
      <path
         d="m 1356.84,1465.47 h -14.03 l -32.6,372.7 h 14.03 l 32.6,-372.7"
         style="fill:#17282f;fill-opacity:1;fill-rule:nonzero;stroke:none"
         id="path128" />
      <path
         d="m 1383.48,1503.47 h 233.96 l -25.96,296.7 h -233.96 l 25.96,-296.7"
         style="fill:#406fbf;fill-opacity:1;fill-rule:nonzero;stroke:none"
         id="path130" />
      <path
         d="M 1582.46,1527.9 H 1400.6 l -21.68,247.84 h 195.44 l 9.45,-108.07 h -13.58 l 12.23,-139.77"
         style="fill:#90b4e3;fill-opacity:1;fill-rule:nonzero;stroke:none"
         id="path132" />
      <path
         d="m 1587.92,1465.47 -17.69,202.2 h -13.81 l 17.69,-202.2 h 13.81"
         style="fill:#040606;fill-opacity:1;fill-rule:nonzero;stroke:none"
         id="path134" />
      <path
         d="m 1587.92,1465.47 -17.69,202.2 h 256.42 l 17.69,-202.2 h -256.42"
         style="fill:#17282f;fill-opacity:1;fill-rule:nonzero;stroke:none"
         id="path136" />
      <path
         d="m 1612.26,1486.09 -14.08,160.96 h 204.13 l 14.09,-160.96 h -204.14"
         style="fill:#406fbf;fill-opacity:1;fill-rule:nonzero;stroke:none"
         id="path138" />
      <path
         d="m 1798.43,1499.34 h -170.52 l -11.77,134.46 h 170.53 l 11.76,-134.46"
         style="fill:#b8d2ef;fill-opacity:1;fill-rule:nonzero;stroke:none"
         id="path140" />
      <path
         d="m 1386.91,1307.97 h -45.35 c -13.58,0 -24.9,10.38 -26.09,23.9 l -3.59,41 h 104.72 l -3.6,-41 c -1.19,-13.52 -12.51,-23.9 -26.09,-23.9"
         style="fill:#4971bf;fill-opacity:1;fill-rule:nonzero;stroke:none"
         id="path142" />
      <path
         d="m 1416.59,1031.72 h -104.71 v 0 h 104.72 -0.01"
         style="fill:#6f87b4;fill-opacity:1;fill-rule:nonzero;stroke:none"
         id="path144" />
      <path
         d="m 1386.91,966.828 h -45.35 c -13.58,0 -24.9,10.371 -26.09,23.891 l -3.59,41.001 h 104.71 L 1413,990.719 c -1.19,-13.52 -12.51,-23.891 -26.09,-23.891"
         style="fill:#4971bf;fill-opacity:1;fill-rule:nonzero;stroke:none"
         id="path146" />
      <path
         d="m 1416.59,690.57 h -104.71 v 0.008 h 104.72 l -0.01,-0.008"
         style="fill:#6f87b4;fill-opacity:1;fill-rule:nonzero;stroke:none"
         id="path148" />
      <path
         d="m 1386.91,625.68 h -45.35 c -13.58,0 -24.9,10.371 -26.09,23.902 l -3.59,40.988 h 104.71 L 1413,649.582 c -1.19,-13.531 -12.51,-23.902 -26.09,-23.902"
         style="fill:#4971bf;fill-opacity:1;fill-rule:nonzero;stroke:none"
         id="path150" />
      <path
         d="m 3792.96,1025.39 c 43.19,53.24 126.67,88.76 218.32,105.86 -7.19,-26.22 -1.8,-50.4 13.7,-56.34 17.28,-6.62 40.47,11.94 51.78,41.46 3.19,8.33 4.96,16.58 5.67,24.38 92.4,7.51 184.8,-3.12 246.47,-32.72 0,0 -60.38,-54.42 -128.76,-197.51 -2.1,0.07 -4.21,0.148 -6.35,0.121 -44.26,-0.442 -79.92,-21.813 -79.66,-47.731 0.19,-18.93 19.54,-35.012 47.19,-42.148 -3.59,-9.16 -7.18,-18.481 -10.76,-28.16 -65.14,-176.313 -238.94,-48.864 -237.37,71.816 0,0 -217.01,41.684 -120.23,160.972"
         style="fill:#406fbf;fill-opacity:1;fill-rule:nonzero;stroke:none"
         id="path152" />
      <path
         d="m 4254.88,1084.08 c 3.19,1.2 4.88,1.78 4.88,1.78 -1.64,-0.57 -3.25,-1.19 -4.88,-1.78"
         style="fill:#406fbf;fill-opacity:1;fill-rule:nonzero;stroke:none"
         id="path154" />
      <path
         d="m 3642.12,470.918 c 0,-5.848 3.63,-11.469 9.49,-13.699 7.73,-3.039 16.39,1.062 19.2,8.781 6.44,17.57 13.23,34.781 20.26,51.41 59.71,141.789 140.62,251.391 222.58,334.758 4.57,4.684 9.14,9.254 13.7,13.703 76.58,3.629 122.25,-58.781 124.94,-62.531 -32.43,75.172 -107.49,77.16 -109.48,77.281 144.26,135.939 284.53,193.079 312.05,203.499 -98.48,-35.24 -183.13,-84.07 -255.38,-138.979 -8.55,93.899 -68.15,102.799 -68.15,102.799 53.75,-33.49 55.51,-91.909 53.98,-113.811 C 3957.33,912 3931.33,889.051 3907.1,865.75 h -0.12 c -133.83,-129.852 -211,-272.352 -246.12,-348.34 -8.08,-17.558 -13.93,-31.5 -17.68,-40.988 -0.7,-1.754 -1.06,-3.633 -1.06,-5.504"
         style="fill:#406fbf;fill-opacity:1;fill-rule:nonzero;stroke:none"
         id="path156" />
      <path
         d="m 4254.88,1084.08 c 3.19,1.2 4.88,1.78 4.88,1.78 -1.64,-0.57 -3.25,-1.19 -4.88,-1.78"
         style="fill:#2251aa;fill-opacity:1;fill-rule:nonzero;stroke:none"
         id="path158" />
      <path
         d="m 3656.9,456.211 c -1.76,0 -3.55,0.328 -5.29,1.008 -5.86,2.23 -9.49,7.851 -9.49,13.699 0,1.871 0.36,3.75 1.06,5.504 3.75,9.488 9.6,23.43 17.68,40.988 35.12,75.988 112.29,218.488 246.12,348.34 h 0.12 c 24.23,23.301 50.23,46.25 78.21,68.379 0.19,2.652 0.32,5.84 0.33,9.449 0.01,26.231 -7.07,74.932 -54.31,104.362 0,0 59.6,-8.9 68.15,-102.799 72.25,54.909 156.9,103.739 255.38,138.979 -27.52,-10.42 -167.79,-67.56 -312.05,-203.499 v 0 0 c 1.99,-0.121 77.05,-2.109 109.48,-77.281 -2.62,3.64 -45.81,62.68 -118.53,62.68 -2.11,0 -4.25,-0.051 -6.41,-0.149 -4.56,-4.449 -9.13,-9.019 -13.7,-13.703 -0.01,-0.008 -0.02,-0.027 -0.03,-0.039 -31.59,-32.129 -63.03,-68.168 -93.15,-108.438 -14.92,-19.941 -29.51,-40.91 -43.64,-62.972 -31.37,-48.969 -60.47,-103.25 -85.76,-163.309 -7.03,-16.629 -13.82,-33.84 -20.26,-51.41 -2.18,-5.98 -7.86,-9.789 -13.91,-9.789"
         style="fill:#2251aa;fill-opacity:1;fill-rule:nonzero;stroke:none"
         id="path160" />
      <path
         d="m 3542.1,1024.17 c -29.11,62.07 -101.58,116.64 -186.42,155.3 0.67,-27.18 -10.38,-49.35 -26.86,-51.39 -18.37,-2.26 -36.4,21.33 -40.28,52.71 -1.09,8.85 -0.82,17.29 0.37,25.02 -87.87,29.53 -180.12,41.46 -247.1,27.57 0,0 45.5,-67.35 77.43,-222.69 2.06,-0.44 4.12,-0.87 6.19,-1.41 42.85,-11.089 72.32,-40.409 65.83,-65.51 -4.74,-18.321 -27.39,-29.27 -55.95,-29.551 1.29,-9.758 2.52,-19.668 3.66,-29.918 20.8,-186.813 220.16,-104.93 247.69,12.57 0,0 220.66,-11.781 155.44,127.299"
         style="fill:#406fbf;fill-opacity:1;fill-rule:nonzero;stroke:none"
         id="path162" />
      <path
         d="m 3107.89,1192.32 c -2.81,1.93 -4.31,2.91 -4.31,2.91 1.45,-0.96 2.87,-1.95 4.31,-2.91"
         style="fill:#f3f2f1;fill-opacity:1;fill-rule:nonzero;stroke:none"
         id="path164" />
      <path
         d="m 3352.91,933.191 c 2.93,-4.453 5.86,-8.902 8.78,-13.461 -0.35,0.122 -3.51,0.821 -8.78,1.399 l -0.82,0.121 c -21.78,2.109 -75.99,1.41 -115.21,-50.23 2.69,2.339 51.51,43.441 115.21,35.128 h 0.82 c 6.56,-0.937 13.35,-2.347 20.26,-4.449 3.39,-5.508 6.79,-11.129 9.95,-16.75 v -0.109 c 18.5,-31.149 36.3,-64.641 52.57,-100.59 l 0.71,-1.52 c 35,-77.16 63.93,-165.449 80.55,-265.32 3.63,-21.308 6.68,-43.211 9.13,-65.57 0.71,-7.61 7.15,-13.231 14.52,-13.231 l 1.88,0.11 c 8.2,0.941 13.93,8.32 12.88,16.511 -1.76,13.122 -5.15,34.54 -11.01,62.18 -14.75,70.84 -45.78,182.891 -107.95,302.668 l -0.71,1.293 c -12.88,24.938 -27.16,50.117 -42.97,75.41 -12.29,19.668 -25.64,39.457 -39.81,59.008 l -0.82,1.172 c -6.09,8.32 -12.29,16.629 -18.73,24.937 1.99,10.774 6.91,30.212 18.73,49.302 l 0.82,1.29 c 11.95,18.85 30.8,37.35 60.3,46.83 0,0 -31.26,3.05 -60.3,-28.92 l -0.82,-0.94 c -10.89,-12.17 -21.31,-29.39 -29.74,-53.511 -54.91,68.271 -122.48,133.721 -205.49,190.041 36.18,-26.23 140.27,-109.01 235.23,-251.51 l 0.82,-1.289"
         style="fill:#406fbf;fill-opacity:1;fill-rule:nonzero;stroke:none"
         id="path166" />
      <path
         d="m 3540.6,438.609 c -7.37,0 -13.81,5.621 -14.52,13.231 -2.45,22.359 -5.5,44.262 -9.13,65.57 -16.62,99.871 -45.55,188.16 -80.55,265.32 l -0.71,1.52 c -16.26,35.922 -34.03,69.371 -52.52,100.488 -0.01,0.032 -0.03,0.071 -0.05,0.102 v 0.109 0 c -3.16,5.621 -6.56,11.242 -9.95,16.75 -6.91,2.102 -13.7,3.512 -20.26,4.449 h -0.82 c -5.84,0.762 -11.54,1.102 -17.11,1.102 -55.14,0 -95.66,-34.102 -98.1,-36.23 32.99,43.429 76.58,50.832 102.56,50.832 4.91,0 9.19,-0.262 12.65,-0.602 l 0.82,-0.121 c 5.27,-0.578 8.43,-1.277 8.78,-1.399 v 0 0 c -2.92,4.559 -5.85,9.008 -8.78,13.461 l -0.82,1.289 c -94.96,142.5 -199.05,225.28 -235.23,251.51 83.01,-56.32 150.58,-121.77 205.49,-190.041 8.43,24.121 18.85,41.341 29.74,53.511 l 0.82,0.94 c 24.4,26.85 50.36,29 58.04,29 1.46,0 2.26,-0.08 2.26,-0.08 -29.5,-9.48 -48.35,-27.98 -60.3,-46.83 l -0.82,-1.29 c -11.82,-19.09 -16.74,-38.528 -18.73,-49.302 v 0 0 c 6.44,-8.308 12.64,-16.617 18.73,-24.937 l 0.82,-1.172 c 14.17,-19.551 27.52,-39.34 39.81,-59.008 15.81,-25.293 30.09,-50.472 42.97,-75.41 l 0.71,-1.293 c 62.17,-119.777 93.2,-231.828 107.95,-302.668 5.86,-27.64 9.25,-49.058 11.01,-62.18 0.08,-0.64 0.12,-1.269 0.12,-1.898 0.02,-7.414 -5.44,-13.742 -13,-14.613 l -1.88,-0.11"
         style="fill:#254583;fill-opacity:1;fill-rule:nonzero;stroke:none"
         id="path168" />
      <path
         d="m 3480.08,1042.85 c 13.76,67.16 71.43,137.19 144.85,194.64 5.72,-26.57 21.66,-45.54 38.15,-43.66 18.39,2.1 30.4,29.26 26.81,60.67 -1.01,8.87 -3.24,17.01 -6.22,24.24 78.52,49.3 165.4,82.5 233.77,84.69 0,0 -28.46,-76.13 -23.11,-234.64 -1.9,-0.9 -3.8,-1.81 -5.69,-2.81 -39.06,-20.82 -60.84,-56.24 -48.66,-79.11 8.91,-16.71 33.49,-22.04 61.32,-15.62 1.04,-9.79 2.16,-19.71 3.45,-29.95 23.55,-186.48 -189.45,-153.581 -243.74,-45.788 0,0 -211.76,-63.153 -180.93,87.338"
         style="fill:#406fbf;fill-opacity:1;fill-rule:nonzero;stroke:none"
         id="path170" />
      <path
         d="m 3808.28,868 c -52.33,-0.012 -111.81,30.141 -141.21,76.801 1.87,6.199 3.86,12.398 5.85,18.488 23.47,13.652 47.33,18.16 68.56,18.16 9.9,0 19.23,-0.98 27.68,-2.469 23.89,-4.101 40.75,-12.179 43.33,-13.468 v 0 0 0 0 0 0 c -13.7,11.238 -27.63,18.379 -40.98,22.828 -13.74,4.57 -26.93,6.219 -38.82,6.219 -30.13,0 -51.86,-10.598 -52.86,-11.02 61.24,175.751 151.39,288.161 178.44,319.311 v 0 0 c -68.96,-75.06 -120.01,-155.73 -157.95,-235.94 -34.11,53.08 -70.89,61.85 -91.48,61.85 -10.15,0 -16.36,-2.13 -16.36,-2.13 v 0 0 c 63.11,-4.8 91.56,-55.86 100.34,-76 -14.63,-32.43 -27.05,-64.86 -37.7,-96.708 -0.01,-0.012 -0.01,-0.024 -0.01,-0.031 -13.47,-3.52 -48.06,-11.532 -83.2,-11.532 -9.24,0 -18.51,0.551 -27.46,1.891 -36.49,5.441 -67.42,23.891 -67.44,70.79 0,8.34 0.97,17.58 3.07,27.81 13.76,67.16 71.43,137.19 144.85,194.64 5.46,-25.35 20.22,-43.79 35.89,-43.79 0.75,0 1.5,0.04 2.26,0.13 16.2,1.85 27.45,23.15 27.45,49.66 0,3.59 -0.21,7.27 -0.64,11.01 -1.01,8.87 -3.24,17.01 -6.22,24.24 78.52,49.3 165.4,82.5 233.77,84.69 0,0 -23.78,-63.61 -23.78,-195.59 0,-12.41 0.21,-25.42 0.67,-39.05 -1.9,-0.9 -3.8,-1.81 -5.69,-2.81 -31.73,-16.92 -52.07,-43.47 -52.04,-65.1 0.01,-4.99 1.1,-9.72 3.38,-14.01 6.46,-12.12 21.19,-18.26 39.41,-18.26 6.89,0 14.28,0.88 21.91,2.64 1.04,-9.79 2.16,-19.71 3.45,-29.95 1.22,-9.671 1.81,-18.769 1.81,-27.28 0.02,-48.86 -19.11,-78.93 -46.96,-94.04 -15.09,-8.191 -32.76,-11.98 -51.32,-11.98 m 54.54,440.03 v 0 c 1.18,1.28 2.32,2.57 3.51,3.84 v 0 0 c 0,0 -1.24,-1.3 -3.51,-3.84 v 0"
         style="fill:#5d87cd;fill-opacity:1;fill-rule:nonzero;stroke:none"
         id="path172" />
      <path
         d="m 3862.82,1308.03 c 2.27,2.54 3.51,3.84 3.51,3.84 -1.19,-1.27 -2.33,-2.56 -3.51,-3.84"
         style="fill:#406fbf;fill-opacity:1;fill-rule:nonzero;stroke:none"
         id="path174" />
      <path
         d="m 3655.12,953.922 c -62.41,-187.231 -61.94,-357.953 -57.02,-436.512 0.7,-12.879 1.64,-23.191 2.34,-30.801 0.82,-7.609 7.14,-13.23 14.64,-13.23 l 1.75,0.121 c 8.2,0.93 13.94,8.539 12.88,16.738 -1.17,9.133 -2.22,18.153 -3.16,27.172 -17.33,164.86 4.22,308.879 40.51,427.379 1.88,6.199 3.87,12.41 5.86,18.5 34.42,20.02 69.66,20.371 96.24,15.691 23.89,-4.101 40.75,-12.179 43.33,-13.468 -13.7,11.238 -27.63,18.379 -40.98,22.828 -48.59,16.16 -90.28,-4.211 -91.68,-4.801 61.24,175.751 151.39,288.161 178.44,319.311 -68.96,-75.06 -120.01,-155.73 -157.95,-235.94 -50.94,79.27 -107.84,59.72 -107.84,59.72 63.11,-4.8 91.56,-55.86 100.34,-76 -14.63,-32.43 -27.05,-64.86 -37.7,-96.708"
         style="fill:#406fbf;fill-opacity:1;fill-rule:nonzero;stroke:none"
         id="path176" />
      <path
         d="m 3862.82,1308.03 c 2.27,2.54 3.51,3.84 3.51,3.84 -1.19,-1.27 -2.33,-2.56 -3.51,-3.84"
         style="fill:#2d5bb2;fill-opacity:1;fill-rule:nonzero;stroke:none"
         id="path178" />
      <path
         d="m 3615.08,473.379 c -7.5,0 -13.82,5.621 -14.64,13.23 -0.7,7.61 -1.64,17.922 -2.34,30.801 -1.1,17.57 -1.98,39.75 -1.98,65.692 0,90.058 10.55,225.457 59,370.82 10.65,31.848 23.07,64.278 37.7,96.708 v 0 0 c -8.78,20.14 -37.23,71.2 -100.34,76 0,0 6.21,2.13 16.36,2.13 20.59,0 57.37,-8.77 91.48,-61.85 37.94,80.21 88.99,160.88 157.95,235.94 -27.05,-31.15 -117.2,-143.56 -178.44,-319.311 v 0 0 c 1,0.422 22.73,11.02 52.86,11.02 11.89,0 25.08,-1.649 38.82,-6.219 13.35,-4.449 27.28,-11.59 40.98,-22.828 -2.58,1.289 -19.44,9.367 -43.33,13.468 -8.45,1.489 -17.78,2.469 -27.68,2.469 -21.23,0 -45.09,-4.508 -68.56,-18.16 -1.99,-6.09 -3.98,-12.289 -5.85,-18.488 0,0 0,-0.012 -0.01,-0.012 -18.55,-60.57 -33.25,-127.801 -40.87,-201.078 -2.14,-20.52 -3.72,-41.531 -4.67,-62.992 -0.71,-15.809 -1.07,-31.867 -1.06,-48.168 0.01,-37.129 1.93,-75.539 6.09,-115.141 0.94,-9.019 1.99,-18.039 3.16,-27.172 0.08,-0.636 0.12,-1.269 0.13,-1.898 0.01,-7.442 -5.45,-13.981 -13.01,-14.84 l -1.75,-0.121"
         style="fill:#2d5bb2;fill-opacity:1;fill-rule:nonzero;stroke:none"
         id="path180" />
      <path
         d="m 3388.04,517.398 7.86,-72.039 h 8.51 l 18.21,-277.55 c 1.18,-17.289 15.46,-30.649 32.75,-30.649 h 308.59 c 17.16,0 31.43,13.36 32.62,30.649 l 18.2,277.55 h 10.61 l 7.73,72.039 h -445.08"
         style="fill:#17282f;fill-opacity:1;fill-rule:nonzero;stroke:none"
         id="path182" />
      <path
         d="m 2774.38,2910.17 c -23.01,-0.03 -44.59,-1.79 -66.95,-4.55 -22.22,-2.86 -44.46,-6.97 -67.19,-13.16 -11.37,-3.14 -22.81,-6.96 -34.56,-11.68 -11.77,-4.87 -23.8,-10.46 -36.34,-19.18 -12.27,-8.8 -26.49,-20.13 -37.31,-41.7 -5.24,-10.73 -8.56,-24.26 -8.32,-37.5 0.09,-10.55 2.23,-20.37 5.21,-28.91 7.11,-26.57 16.15,-50.11 26.06,-73.04 9.77,-23.01 20.6,-44.82 31.91,-66.3 11.18,-21.54 23.19,-42.38 35.58,-62.95 12.74,-20.54 24.93,-40.53 39.32,-60.91 17.48,-24.65 51.47,-31.82 77.43,-15.61 26.95,16.81 35.15,52.29 18.34,79.24 l -0.43,0.67 c -11.47,18.38 -24.15,37.83 -35.73,57.04 -11.9,19.21 -23.56,38.53 -34.91,57.79 -11.22,19.31 -22.31,38.66 -32.28,57.88 -9.8,19.21 -19.3,38.5 -25.97,56.42 l -0.49,1.33 c 9.04,8.51 25.19,18.24 42.08,26.11 17.12,8.28 35.75,15.67 54.75,22.7 18.88,7.02 38.91,13.59 57.8,19.92 l 1.21,0.4 c 11.4,3.83 19.6,14.61 19.58,27.29 -0.03,15.88 -12.92,28.73 -28.79,28.7"
         style="fill:#f46b74;fill-opacity:1;fill-rule:nonzero;stroke:none"
         id="path184" />
      <path
         d="m 2770.56,2901.81 61.56,67.13 30.13,-86.32 c 0,0 -52.44,-48.6 -83.49,-17.52 l -8.2,36.71"
         style="fill:#f46b74;fill-opacity:1;fill-rule:nonzero;stroke:none"
         id="path186" />
      <path
         d="m 2889.71,2965.28 17.65,-33.56 c 6.3,-11.98 1.4,-26.8 -10.81,-32.65 l -34.3,-16.45 -30.13,86.32 30.14,8.26 c 10.81,2.97 22.23,-1.99 27.45,-11.92"
         style="fill:#f46b74;fill-opacity:1;fill-rule:nonzero;stroke:none"
         id="path188" />
      <path
         d="m 2384.02,310.012 -69.93,25.398 38.5,168.539 69.94,-25.41 -38.51,-168.527"
         style="fill:#f46b74;fill-opacity:1;fill-rule:nonzero;stroke:none"
         id="path190" />
      <path
         d="m 2935.65,217.121 h -74.24 l -21.07,171.93 h 74.24 l 21.07,-171.93"
         style="fill:#f46b74;fill-opacity:1;fill-rule:nonzero;stroke:none"
         id="path192" />
      <path
         d="m 2851.67,225.719 h 90.51 c 3.04,0 5.69,-2.11 6.37,-5.071 l 15.33,-65.988 c 1.59,-6.851 -3.72,-13.332 -10.74,-13.211 -29.12,0.5 -50.39,2.211 -87.07,2.211 -22.56,0 -90.59,-2.34 -121.75,-2.34 -30.48,0 -35.54,30.809 -22.81,33.602 57.07,12.508 100.01,29.769 118.15,46.226 3.28,2.973 7.57,4.571 12.01,4.571"
         style="fill:#17282f;fill-opacity:1;fill-rule:nonzero;stroke:none"
         id="path194" />
      <path
         d="m 2311.53,349.629 79.44,-17.039 c 2.98,-0.641 5.13,-3.25 5.18,-6.281 l 1.14,-67.59 c 0.12,-7.008 -6.27,-12.25 -13.11,-10.668 -28.56,6.64 -69.63,17.199 -105.65,24.918 -42.12,9.043 -68.22,17.551 -117.62,28.152 -29.86,6.399 -31.98,38.297 -18.91,38.348 59.45,0.211 95.46,-11.43 150.84,8.269 6.02,2.141 12.41,3.242 18.69,1.891"
         style="fill:#17282f;fill-opacity:1;fill-rule:nonzero;stroke:none"
         id="path196" />
      <path
         d="m 2402.7,391.609 -0.03,0.02 3.85,16.851 0.03,-0.011 -3.85,-16.86"
         style="fill:#c3c5c2;fill-opacity:1;fill-rule:nonzero;stroke:none"
         id="path198" />
      <path
         d="m 2402.67,391.629 -69.93,25.402 3.84,16.821 69.94,-25.372 -3.85,-16.851"
         style="fill:#ea5b5b;fill-opacity:1;fill-rule:nonzero;stroke:none"
         id="path200" />
      <path
         d="m 2925.5,300.379 h -0.05 L 2914.59,389 h 0.02 l 10.89,-88.621 m -81.18,56.25 -3.98,32.371 h 0.01 l 3.97,-32.371"
         style="fill:#c3c5c2;fill-opacity:1;fill-rule:nonzero;stroke:none"
         id="path202" />
      <path
         d="m 2925.45,300.379 h -74.22 l -6.91,56.25 -3.97,32.371 h 74.24 l 10.86,-88.621"
         style="fill:#ea5b5b;fill-opacity:1;fill-rule:nonzero;stroke:none"
         id="path204" />
      <path
         d="m 2312.22,442.68 118.44,-42.961 c 0,0 92.53,407.371 141.7,633.201 14.96,68.7 45.04,163.17 80.67,263.81 44.94,126.79 98.58,263.23 141.89,369.9 45.67,112.34 79.69,191.63 79.69,191.63 l -256.06,51.86 c 0,0 -195.38,-562.22 -239.27,-784.44 -45.66,-231.039 -67.06,-683 -67.06,-683"
         style="fill:#406fbf;fill-opacity:1;fill-rule:nonzero;stroke:none"
         id="path206" />
      <path
         d="m 2653.03,1296.73 c 3.08,129.76 48.81,363.38 122.07,431.19 l 19.82,-61.29 c -43.31,-106.67 -96.95,-243.11 -141.89,-369.9"
         style="fill:#3563b7;fill-opacity:1;fill-rule:nonzero;stroke:none"
         id="path208" />
      <path
         d="m 2756.7,1882.14 c 0,0 -45.71,-641.06 -48.47,-858.88 -3.03,-238.53 108.51,-705.721 108.51,-705.721 h 135.98 c 0,0 -54.31,421.539 -36.24,657.859 20.21,264.272 93.32,865.432 93.32,865.432 l -253.1,41.31"
         style="fill:#406fbf;fill-opacity:1;fill-rule:nonzero;stroke:none"
         id="path210" />
      <path
         d="m 2800.49,314.602 h 160.12 l -0.48,47.839 -167.16,9.661 7.52,-57.5"
         style="fill:#17282f;fill-opacity:1;fill-rule:nonzero;stroke:none"
         id="path212" />
      <path
         d="m 2296.41,444.211 141.83,-49.242 15.43,45.769 -155.11,56.492 -2.15,-53.019"
         style="fill:#17282f;fill-opacity:1;fill-rule:nonzero;stroke:none"
         id="path214" />
      <path
         d="m 2816.06,228.109 c -0.92,0 -1.69,-0.129 -2.27,-0.437 -0.47,-0.242 -1.02,-0.692 -1.1,-2.063 -0.14,-2.8 0.66,-4.89 2.46,-6.39 4.09,-3.399 13.8,-3.867 26.37,-1.328 -8.43,4.839 -19.76,10.218 -25.46,10.218 z m 11.19,-15.359 c -5.65,0 -10.94,0.961 -14.34,3.781 -2.68,2.239 -3.93,5.36 -3.73,9.301 0.16,2.918 1.7,4.316 2.97,4.969 8.15,4.23 32.26,-10.5 34.98,-12.192 l 0.83,-1.769 -1.31,-1.43 c -5.15,-1.238 -12.54,-2.66 -19.4,-2.66"
         style="fill:#406fbf;fill-opacity:1;fill-rule:nonzero;stroke:none"
         id="path216" />
      <path
         d="m 2830.95,245.461 -0.8,-0.051 c -2.28,-0.281 -2.47,-1.332 -2.55,-1.781 -0.88,-4.879 8.71,-17.18 16.4,-22.969 -0.92,6.25 -3.42,18.738 -9,23.262 -1.27,1.027 -2.61,1.539 -4.05,1.539 z m 15.28,-30.102 -0.84,0.211 c -7.72,4.18 -22.74,20.45 -21.25,28.719 0.27,1.5 1.35,4.09 5.55,4.609 2.73,0.321 5.25,-0.429 7.51,-2.257 8.7,-7.051 10.69,-28.473 10.77,-29.379 l -0.78,-1.614 -0.96,-0.289"
         style="fill:#406fbf;fill-opacity:1;fill-rule:nonzero;stroke:none"
         id="path218" />
      <path
         d="m 2265.92,361.48 -0.69,-0.14 -1.46,-1.602 c -0.65,-2.289 -0.34,-4.238 0.95,-5.968 3.66,-4.918 15.49,-8.18 32.1,-8.961 -10.41,7.961 -25.03,17.39 -30.9,16.671 z m 36.39,-20.339 -0.24,-0.012 c -12.2,0.18 -33.63,1.801 -40.17,10.551 -1.96,2.64 -2.47,5.691 -1.51,9.058 0.58,2.012 1.88,3.383 3.78,3.973 9.89,3.09 36.06,-18.051 39.01,-20.461 l 0.55,-1.969 -1.42,-1.14"
         style="fill:#406fbf;fill-opacity:1;fill-rule:nonzero;stroke:none"
         id="path220" />
      <path
         d="m 2287.13,374.582 c -1.53,-0.184 -1.82,-0.934 -1.93,-1.23 -1.8,-4.75 7.49,-19.622 15.35,-26.911 0.23,5.911 0.04,18.161 -5.02,24.438 -1.76,2.18 -3.91,3.391 -6.57,3.68 z m 15.18,-33.441 -1.26,0.328 c -7.97,5.82 -22.15,25.242 -19.14,33.16 0.71,1.859 2.57,3.949 7.41,3.43 3.58,-0.399 6.6,-2.079 8.95,-5 7.7,-9.571 5.65,-29.528 5.56,-30.379 l -1.04,-1.41 -0.48,-0.129"
         style="fill:#406fbf;fill-opacity:1;fill-rule:nonzero;stroke:none"
         id="path222" />
      <path
         d="m 2770.8,2586.91 c 81.99,2.78 157.39,-8.68 243.57,-30.29 45.48,-11.41 78.63,-49.74 81.71,-95.1 7.01,-103.09 -10.81,-303.05 -76.64,-607.32 -3.1,-14.37 -15.74,-24.97 -30.9,-25.61 -44.29,-1.87 -111.8,7.36 -187.14,19.14 -10.01,1.56 -32.85,26.56 -32.85,26.56 0,0 -23.67,-16.78 -36.36,-14.19 -41.02,8.36 -80.35,17.69 -104.77,26.76 -15.1,5.61 -25.91,18.5 -28.85,33.88 -13.27,69.41 -11.1,201.19 58.25,314.8 7.06,79.1 7.17,169.53 12.65,254.57 3.4,52.88 46.7,94.94 101.33,96.8"
         style="fill:#17282f;fill-opacity:1;fill-rule:nonzero;stroke:none"
         id="path224" />
      <path
         d="m 2971.96,2688.25 c -17.69,-53.72 -34.38,-113.71 -12.63,-159.59 -30.21,-28.39 -82.5,-51 -132.83,-29.76 -55.32,23.35 -22.81,69.24 -2.82,87.72 35.39,14.6 37.38,45.84 41.48,68.98 l 106.8,32.65"
         style="fill:#f46b74;fill-opacity:1;fill-rule:nonzero;stroke:none"
         id="path226" />
      <path
         d="m 2852.47,2610.69 c -0.02,0 -0.04,0 -0.06,0 4.85,8.15 7.52,17.06 9.36,25.77 0.01,0 0.01,0 0.02,0 -1.83,-8.72 -4.47,-17.63 -9.32,-25.77"
         style="fill:#b6b8b6;fill-opacity:1;fill-rule:nonzero;stroke:none"
         id="path228" />
      <path
         d="m 2854.28,2610.68 c -0.6,0 -1.21,0 -1.81,0.01 4.85,8.14 7.49,17.05 9.32,25.77 7.88,-2.23 16.2,-3.43 24.84,-3.43 8.61,0 17.53,1.19 26.66,3.73 12.73,3.55 23.59,8.58 33.32,15.09 -1.17,-1.81 -2.37,-3.62 -3.62,-5.38 -16.67,-23.77 -54.55,-35.79 -88.71,-35.79"
         style="fill:#ea5b5b;fill-opacity:1;fill-rule:nonzero;stroke:none"
         id="path230" />
      <path
         d="m 3026.37,2752.37 c -40.82,-62.54 -61.54,-101.25 -113.08,-115.61 -77.52,-21.58 -140.38,54.37 -119.01,128.04 19.24,66.31 82.76,157.45 160.66,146.56 76.74,-10.72 112.25,-96.45 71.43,-158.99"
         style="fill:#f46b74;fill-opacity:1;fill-rule:nonzero;stroke:none"
         id="path232" />
      <path
         d="m 2913.12,2790.73 c -3,-5.27 -8.22,-7.94 -11.66,-5.94 -3.44,2 -3.79,7.89 -0.79,13.17 3,5.28 8.22,7.94 11.66,5.95 3.43,-2 3.79,-7.89 0.79,-13.18"
         style="fill:#17282f;fill-opacity:1;fill-rule:nonzero;stroke:none"
         id="path234" />
      <path
         d="m 2846.39,2826.75 c -3,-5.28 -8.22,-7.95 -11.66,-5.95 -3.44,1.99 -3.79,7.89 -0.79,13.17 3,5.28 8.22,7.94 11.66,5.95 3.43,-1.99 3.79,-7.89 0.79,-13.17"
         style="fill:#17282f;fill-opacity:1;fill-rule:nonzero;stroke:none"
         id="path236" />
      <path
         d="m 2862.81,2810.21 c 0,0 -30.65,-21.68 -52.56,-27.41 3.47,-14.35 21.21,-20.65 21.21,-20.65 l 31.35,48.06"
         style="fill:#f14358;fill-opacity:1;fill-rule:nonzero;stroke:none"
         id="path238" />
      <path
         d="m 2943.07,2821.03 1.79,-0.24 c 1.95,0.25 3.32,2.03 3.07,4 -2.54,19.66 -17.25,27.08 -17.88,27.39 -1.77,0.87 -3.89,0.12 -4.74,-1.65 -0.85,-1.78 -0.11,-3.91 1.64,-4.78 0.49,-0.25 11.9,-6.16 13.92,-21.85 0.17,-1.33 1.05,-2.39 2.2,-2.87"
         style="fill:#17282f;fill-opacity:1;fill-rule:nonzero;stroke:none"
         id="path240" />
      <path
         d="m 2839.14,2864.56 c 0.92,-0.68 2.16,-0.91 3.32,-0.48 14.73,5.4 25.15,-2.12 25.59,-2.44 1.58,-1.17 3.8,-0.84 4.96,0.74 1.16,1.58 0.84,3.81 -0.73,5 -0.57,0.41 -13.82,10.21 -32.27,3.43 -1.84,-0.67 -2.78,-2.73 -2.11,-4.59 l 1.24,-1.66"
         style="fill:#17282f;fill-opacity:1;fill-rule:nonzero;stroke:none"
         id="path242" />
      <path
         d="m 2949.57,2580.97 c -1.14,-17.26 -31.72,-73.81 -107.05,-87.31 27.32,-4.94 33.31,-41.68 33.31,-41.68 0,0 102.66,33.95 101.87,96.39 -2.48,29.4 -28.13,32.6 -28.13,32.6"
         style="fill:#406fbf;fill-opacity:1;fill-rule:nonzero;stroke:none"
         id="path244" />
      <path
         d="m 2837.39,2595.48 c -1.11,-16.87 -26.3,-48.39 5.13,-101.82 -27.41,4.46 -48.49,-19.96 -48.49,-19.96 0,0 -27.49,58.16 11.45,113.22 16.85,10.22 31.91,8.56 31.91,8.56"
         style="fill:#406fbf;fill-opacity:1;fill-rule:nonzero;stroke:none"
         id="path246" />
      <path
         d="m 2903.59,2888.2 c 0,0 -71.47,-1.59 -63.43,36.76 5.34,25.45 43.73,15.79 43.73,15.79 0,0 -18.35,48.14 6.16,57.91 24.51,9.78 48.38,-23.5 48.38,-23.5 0,0 11.68,52.02 45.78,52.83 32.19,0.78 28.43,-52.83 28.43,-52.83 0,0 44.37,40.05 63.93,23.5 19.55,-16.54 -11.29,-65.43 -11.29,-65.43 0,0 52,22.16 61.67,-3.01 11.29,-29.33 -48.45,-44.43 -48.45,-44.43 0,0 54.47,-5.59 54.47,-31.07 0,-25.48 -51.89,-26.84 -51.89,-26.84 0,0 44.17,-15.12 39.66,-41.7 -4.51,-26.57 -48.95,-17.65 -48.95,-17.65 0,0 -24.56,-10.53 -63.67,-64.68 0,0 -49.77,-6.18 -36.16,23.61 13.6,29.78 33.91,100.42 33.91,100.42 0,0 -69.41,-17.67 -50.39,28.64 0,0 -99.78,-9.78 -51.89,31.68"
         style="fill:#17282f;fill-opacity:1;fill-rule:nonzero;stroke:none"
         id="path248" />
      <path
         d="m 3142.31,2838.39 -22.95,81.48 -70.21,-58.57 c 0,0 20.01,-68.64 62.62,-57.92 l 30.54,35.01"
         style="fill:#f46b74;fill-opacity:1;fill-rule:nonzero;stroke:none"
         id="path250" />
      <path
         d="m 3068.07,2946.33 -32.39,-19.72 c -11.56,-7.04 -14.97,-22.27 -7.5,-33.57 l 20.97,-31.74 70.21,58.57 -21.61,22.58 c -7.75,8.1 -20.1,9.71 -29.68,3.88"
         style="fill:#f46b74;fill-opacity:1;fill-rule:nonzero;stroke:none"
         id="path252" />
      <path
         d="m 3356.2,2793.32 c -6,11.83 -13.77,20.32 -21,26.62 -7.32,6.31 -14.34,10.69 -21,14.28 -13.31,7.1 -25.55,11.1 -37.3,14.24 -11.75,3.11 -23.01,5.33 -34.13,6.93 -22.2,3.12 -43.64,4.36 -64.9,4.45 -21.41,-0.24 -41.93,-0.89 -63.62,-3.49 -11.78,-1.43 -21.97,-10.12 -24.68,-22.37 -3.43,-15.51 6.37,-30.87 21.89,-34.3 l 1.2,-0.27 c 18.5,-4.08 38.09,-7.99 56.62,-12.86 18.66,-4.61 37.02,-9.55 54.01,-15.46 8.47,-2.93 16.65,-5.95 23.91,-9.36 3.99,-1.84 7.67,-3.8 10.89,-5.72 -3.06,-6.19 -7.45,-13.51 -12.73,-20.9 -6.51,-9 -13.85,-18.4 -21.85,-27.62 -16.09,-18.45 -34.23,-36.71 -53.04,-54.59 -18.93,-17.8 -38.56,-35.39 -58.61,-52.63 -19.72,-17.28 -40.98,-34.42 -60.52,-50.38 l -0.94,-0.76 c -23.54,-19.28 -28.06,-53.87 -9.77,-78.62 18.87,-25.54 54.87,-30.95 80.41,-12.08 23.92,17.67 44.99,35.61 66.8,54.3 21.43,18.81 42.42,38.26 62.6,59.07 20.29,20.7 39.94,42.47 58.42,66.74 18.32,24.57 36.42,49.7 49.13,87.24 3.05,7.69 5.58,16.66 6.27,27.22 1.02,13.32 -1.98,28.51 -8.06,40.32"
         style="fill:#f46b74;fill-opacity:1;fill-rule:nonzero;stroke:none"
         id="path254" />
      <path
         d="m 3057.04,2758.52 v 0 c 9.5,7.76 14.75,10.01 14.75,10.01 v 0 c 0,0 -5.25,-2.25 -14.75,-10.01"
         style="fill:#fcfdfc;fill-opacity:1;fill-rule:nonzero;stroke:none"
         id="path256" />
      <path
         d="m 3000.21,2703.34 c 4.64,0.1 7.91,0.51 7.91,0.51 21.04,29.12 37.87,45.63 48.92,54.67 v 0 c -11.05,-9.04 -27.88,-25.55 -48.92,-54.67 0,0 -3.27,-0.41 -7.91,-0.51"
         style="fill:#f3f2f1;fill-opacity:1;fill-rule:nonzero;stroke:none"
         id="path258" />
      <path
         d="m 2970.55,2723.83 c 0.36,1.14 0.83,2.35 1.41,3.63 11.32,24.78 27.28,77.84 32.32,94.97 -5.04,-17.13 -21,-70.19 -32.32,-94.97 -0.58,-1.28 -1.05,-2.49 -1.41,-3.63"
         style="fill:#f78f99;fill-opacity:1;fill-rule:nonzero;stroke:none"
         id="path260" />
      <path
         d="m 2998.15,2703.32 c -12.92,0 -33.17,2.72 -27.6,20.51 0.36,1.14 0.83,2.35 1.41,3.63 11.32,24.78 27.28,77.84 32.32,94.97 1.02,3.46 1.59,5.45 1.59,5.45 0,0 -4.95,-52.79 19.16,-52.78 4.87,0 10.93,2.16 18.46,7.34 l 28.3,-13.91 c 0,0 -5.25,-2.25 -14.75,-10.01 -11.05,-9.04 -27.88,-25.55 -48.92,-54.67 0,0 -3.27,-0.41 -7.91,-0.51 -0.66,-0.02 -1.35,-0.02 -2.06,-0.02"
         style="fill:#57666b;fill-opacity:1;fill-rule:nonzero;stroke:none"
         id="path262" />
      <path
         d="m 3010.98,2673.94 c -16.98,-10.71 -37.34,-12.5 -53.39,-8.5 -24.15,6.03 -24.16,30.7 -7.35,47.17 15.14,14.82 45.94,29.54 65.32,14.77 19.09,-14.55 14.83,-41.19 -4.58,-53.44"
         style="fill:#f46b74;fill-opacity:1;fill-rule:nonzero;stroke:none"
         id="path264" />
      <path
         d="m 3149.96,2641.05 16.48,11.82 c 5.24,3.76 12.54,2.6 16.36,-2.6 l 64.62,-88.04 c 3.59,-4.88 2.88,-11.7 -1.63,-15.74 l -19.12,-17.13 -76.71,111.69"
         style="fill:#406fbf;fill-opacity:1;fill-rule:nonzero;stroke:none"
         id="path266" />
      <path
         d="m 3152.53,2644.92 81.93,-116 c 0,0 -154.19,-180.42 -233.86,-60.25 -52.7,79.49 151.93,176.25 151.93,176.25"
         style="fill:#17282f;fill-opacity:1;fill-rule:nonzero;stroke:none"
         id="path268" />
      <path
         d="m 2685.55,2684.11 -11.07,16.99 c -3.53,5.41 -10.75,6.97 -16.2,3.5 l -92.12,-58.65 c -5.12,-3.25 -6.92,-9.86 -4.18,-15.27 l 11.61,-22.88 111.96,76.31"
         style="fill:#406fbf;fill-opacity:1;fill-rule:nonzero;stroke:none"
         id="path270" />
      <path
         d="m 2684.57,2688.65 -118.4,-78.44 c 0,0 78.37,-224.02 196.15,-140.87 77.92,55 -77.75,219.31 -77.75,219.31"
         style="fill:#17282f;fill-opacity:1;fill-rule:nonzero;stroke:none"
         id="path272" />
      <path
         d="m 2810.23,2719.42 c 0,0 14.11,-6.33 54.91,-11.39 -3.24,17.2 -10.91,31.86 -31.83,34.19 -20.93,2.33 -23.08,-22.8 -23.08,-22.8"
         style="fill:#ffffff;fill-opacity:1;fill-rule:nonzero;stroke:none"
         id="path274" />
      <path
         d="m 3547.53,2905.56 c 4.94,20.72 4.11,41.96 -2.33,62.01 l -183.64,-63.55 134.12,126.93 c -10.45,6.46 -21.82,11.19 -33.94,14.07 -3.57,0.85 -7.32,1.55 -11.15,2.09 l -34.62,4.78 31.6,14.94 c 32,15.12 55.05,43.5 63.23,77.85 7.57,31.77 1.3,65.45 -17.21,92.39 l -21.89,31.88 34.94,-16.58 c 8.91,-4.23 18.27,-7.52 27.83,-9.8 54.06,-12.87 110.8,7.37 144.55,51.59 l 13.75,18.02 4.71,-22.17 c 9.25,-43.54 43.19,-78.33 86.45,-88.64 10.04,-2.39 20.37,-3.44 30.76,-3.08 l 23.93,0.79 -15.74,-18.04 c -12.39,-14.22 -20.9,-30.76 -25.29,-49.16 -10.34,-43.39 5.51,-89.44 40.38,-117.33 l 21.63,-17.29 -27.67,-1.24 c -51.32,-2.29 -95.48,-38.81 -107.4,-88.82 -3.08,-12.93 -3.92,-26.17 -2.48,-39.34 l 3.58,-32.88 -21.77,24.91 c -15.9,18.19 -36.74,30.77 -60.26,36.38 -28.4,6.76 -58.07,2.61 -83.54,-11.71 l -23.14,-13.01 8.12,25.27 c 1.07,3.31 1.86,6.08 2.49,8.74"
         style="fill:#406fbf;fill-opacity:1;fill-rule:nonzero;stroke:none"
         id="path276" />
      <path
         d="m 3403.79,2934.86 147.65,51.1 c 9.87,-23.74 12.63,-50.69 6.22,-77.61 -0.78,-3.24 -1.7,-6.4 -2.7,-9.51 26.7,15.01 58.9,20.42 91.05,12.76 26.51,-6.32 49.03,-20.59 65.69,-39.66 -1.52,13.97 -0.74,28.43 2.71,42.88 13.36,56.07 62.21,94.36 117.06,96.81 -36.96,29.56 -55.7,78.77 -44.01,127.86 4.9,20.56 14.59,38.71 27.58,53.6 -11.03,-0.37 -22.28,0.68 -33.52,3.36 -48.98,11.67 -84.41,50.43 -94.22,96.6 -35.14,-46.05 -95.26,-69.69 -155.24,-55.41 -10.52,2.51 -20.5,6.08 -29.89,10.54 19.49,-28.39 27.36,-64.59 18.76,-100.72 -9.24,-38.77 -35.48,-69.03 -68.91,-84.84 4.04,-0.56 8.09,-1.3 12.13,-2.27 18.04,-4.3 34.22,-12.3 47.99,-22.96 l -108.35,-102.53"
         style="fill:#406fbf;fill-opacity:1;fill-rule:nonzero;stroke:none"
         id="path278" />
      <path
         d="m 3711.7,2871.94 c -16.66,19.07 -39.18,33.34 -65.69,39.66 -9.82,2.34 -19.64,3.46 -29.32,3.46 -21.99,0 -43.19,-5.79 -61.73,-16.22 1,3.11 1.92,6.27 2.7,9.51 2.33,9.78 3.45,19.56 3.45,29.2 0.02,16.88 -3.39,33.29 -9.67,48.41 l -147.65,-51.1 108.35,102.53 v 0 c -13.77,10.66 -29.95,18.66 -47.99,22.96 -4.04,0.97 -8.09,1.71 -12.13,2.27 33.43,15.81 59.67,46.07 68.91,84.84 2.33,9.81 3.46,19.63 3.46,29.29 0.01,25.92 -8.02,50.75 -22.22,71.43 9.39,-4.46 19.37,-8.03 29.89,-10.54 11.77,-2.8 23.54,-4.14 35.13,-4.14 47.48,0 91.86,22.54 120.11,59.55 9.81,-46.17 45.24,-84.93 94.22,-96.6 9.8,-2.34 19.61,-3.43 29.27,-3.43 1.42,0 2.83,0.02 4.25,0.07 -12.99,-14.89 -22.68,-33.04 -27.58,-53.6 -2.35,-9.87 -3.47,-19.76 -3.46,-29.48 0.04,-38.62 17.94,-74.77 47.47,-98.38 -54.85,-2.45 -103.7,-40.74 -117.06,-96.81 -2.34,-9.82 -3.46,-19.64 -3.45,-29.32 0,-4.56 0.25,-9.08 0.74,-13.56"
         style="fill:#b8d2ef;fill-opacity:1;fill-rule:nonzero;stroke:none"
         id="path280" />
      <path
         d="m 3677.81,3045.2 h -40.01 l -10.07,117.92 h 59.89 z m -20.14,-69.94 c -17.75,0 -29.94,12.44 -29.94,27.82 0,15.63 12.19,27.29 29.94,27.29 17.76,0 30.21,-11.66 30.21,-27.29 0,-15.38 -12.45,-27.82 -30.21,-27.82"
         style="fill:#17282f;fill-opacity:1;fill-rule:nonzero;stroke:none"
         id="path282" />
      <path
         d="m 2022.02,2792.15 c -9.48,39.81 -7.9,80.62 4.48,119.14 l 352.77,-122.09 -257.64,243.83 c 20.08,12.42 41.92,21.49 65.2,27.04 6.85,1.63 14.06,2.97 21.42,4 l 66.5,9.2 -60.7,28.69 c -61.47,29.05 -105.75,83.56 -121.46,149.54 -14.54,61.04 -2.5,125.73 33.05,177.5 l 42.05,61.24 -67.11,-31.85 c -17.12,-8.12 -35.11,-14.46 -53.47,-18.83 -103.85,-24.73 -212.85,14.15 -277.69,99.11 l -26.41,34.6 -9.05,-42.57 c -17.77,-83.64 -82.96,-150.48 -166.07,-170.28 -19.28,-4.6 -39.12,-6.61 -59.09,-5.93 l -45.96,1.52 30.23,-34.65 c 23.8,-27.31 40.15,-59.09 48.58,-94.45 19.86,-83.34 -10.59,-171.8 -77.57,-225.37 l -41.55,-33.22 53.15,-2.38 c 98.59,-4.41 183.43,-74.57 206.32,-170.62 5.92,-24.86 7.53,-50.28 4.77,-75.58 l -6.87,-63.17 41.81,47.85 c 30.55,34.95 70.58,59.12 115.76,69.88 54.56,12.99 111.56,5.01 160.49,-22.48 l 44.44,-24.99 -15.6,48.53 c -2.05,6.36 -3.56,11.69 -4.78,16.79"
         style="fill:#406fbf;fill-opacity:1;fill-rule:nonzero;stroke:none"
         id="path284" />
      <path
         d="m 2298.14,2848.44 -283.62,98.16 c -18.97,-45.6 -24.27,-97.37 -11.95,-149.08 1.48,-6.22 3.26,-12.29 5.19,-18.27 -51.3,28.84 -113.16,39.22 -174.93,24.51 -50.92,-12.13 -94.17,-39.56 -126.18,-76.19 2.92,26.84 1.41,54.62 -5.2,82.38 -25.66,107.7 -119.52,181.26 -224.88,185.97 71.01,56.78 107,151.32 84.53,245.63 -9.41,39.48 -28.02,74.34 -52.96,102.95 21.18,-0.7 42.79,1.31 64.39,6.46 94.08,22.42 162.14,96.88 180.99,185.58 67.51,-88.46 183,-133.89 298.23,-106.44 20.19,4.81 39.37,11.67 57.4,20.22 -37.43,-54.52 -52.56,-124.05 -36.02,-193.46 17.75,-74.48 68.14,-132.63 132.38,-162.99 -7.76,-1.07 -15.54,-2.5 -23.32,-4.35 -34.65,-8.26 -65.73,-23.63 -92.17,-44.12 l 208.12,-196.96"
         style="fill:#406fbf;fill-opacity:1;fill-rule:nonzero;stroke:none"
         id="path286" />
      <path
         d="m 1706.65,2727.57 c 0.94,8.6 1.42,17.29 1.42,26.05 0.01,18.58 -2.13,37.46 -6.62,56.33 -25.66,107.7 -119.52,181.26 -224.88,185.97 56.79,45.42 91.19,114.98 91.19,189.26 0,18.6 -2.16,37.49 -6.66,56.37 -9.41,39.48 -28.02,74.34 -52.96,102.95 2.71,-0.09 5.43,-0.14 8.16,-0.14 18.56,0 37.4,2.11 56.23,6.6 94.08,22.42 162.14,96.88 180.99,185.58 54.26,-71.1 139.53,-114.4 230.73,-114.4 22.27,0 44.88,2.57 67.5,7.96 20.19,4.81 39.37,11.67 57.4,20.22 -27.27,-39.71 -42.7,-87.41 -42.67,-137.2 0,-18.56 2.16,-37.41 6.65,-56.26 17.75,-74.48 68.14,-132.63 132.38,-162.99 -7.76,-1.07 -15.54,-2.5 -23.32,-4.35 -34.65,-8.26 -65.73,-23.63 -92.17,-44.12 v 0 0 l 208.12,-196.96 -283.62,98.16 c -12.04,-28.94 -18.58,-60.37 -18.59,-92.7 -0.01,-18.6 2.14,-37.49 6.64,-56.38 1.48,-6.22 3.26,-12.29 5.19,-18.27 -35.63,20.03 -76.36,31.16 -118.6,31.16 -18.58,0 -37.45,-2.16 -56.33,-6.65 -50.92,-12.13 -94.17,-39.56 -126.18,-76.19"
         style="fill:#b8d2ef;fill-opacity:1;fill-rule:nonzero;stroke:none"
         id="path288" />
      <path
         d="m 1760.11,3255.92 c 0,23.43 -16.07,38.73 -36.6,38.73 -20.54,0 -36.61,-15.3 -36.61,-38.73 0,-23.44 16.07,-38.74 36.61,-38.74 20.53,0 36.6,15.3 36.6,38.74 z m -111.95,0 c 0,40.67 31.96,70.5 75.35,70.5 43.38,0 75.34,-29.83 75.34,-70.5 0,-40.67 -31.96,-70.51 -75.34,-70.51 -43.39,0 -75.35,29.84 -75.35,70.51"
         style="fill:#17282f;fill-opacity:1;fill-rule:nonzero;stroke:none"
         id="path290" />
      <path
         d="m 1948.07,3323.71 v -135.58 h -38.35 v 52.88 h -52.29 v -52.88 h -38.35 v 135.58 h 38.35 v -50.94 h 52.29 v 50.94 h 38.35"
         style="fill:#17282f;fill-opacity:1;fill-rule:nonzero;stroke:none"
         id="path292" />
      <path
         d="m 2011.1,3208.27 c 0,-5.42 -0.78,-9.68 -6.39,-22.27 l -12.21,-28.28 h -23.04 l 9.1,31.57 c -6.97,3.29 -11.42,9.88 -11.42,18.98 0,13.17 9.29,21.7 22.07,21.7 12.59,0 21.89,-8.53 21.89,-21.7"
         style="fill:#17282f;fill-opacity:1;fill-rule:nonzero;stroke:none"
         id="path294" />
      <path
         d="m 1784.13,3123.46 v -135.58 h -31.58 l -59.84,72.25 v -72.25 h -37.58 v 135.58 h 31.58 l 59.84,-72.24 v 72.24 h 37.58"
         style="fill:#17282f;fill-opacity:1;fill-rule:nonzero;stroke:none"
         id="path296" />
      <path
         d="m 1916.3,3055.67 c 0,23.44 -16.07,38.73 -36.6,38.73 -20.54,0 -36.61,-15.29 -36.61,-38.73 0,-23.43 16.07,-38.74 36.61,-38.74 20.53,0 36.6,15.31 36.6,38.74 z m -111.95,0 c 0,40.67 31.96,70.51 75.35,70.51 43.38,0 75.34,-29.84 75.34,-70.51 0,-40.67 -31.96,-70.5 -75.34,-70.5 -43.39,0 -75.35,29.83 -75.35,70.5"
         style="fill:#17282f;fill-opacity:1;fill-rule:nonzero;stroke:none"
         id="path298" />
      <path
         d="m 1969.07,3123.46 h 43.78 l -7.37,-86.19 h -29.24 z m -0.19,-116.98 c 0,11.42 9.1,19.95 22.08,19.95 12.98,0 21.89,-8.53 21.89,-19.95 0,-11.24 -8.91,-20.34 -21.89,-20.34 -12.98,0 -22.08,9.1 -22.08,20.34"
         style="fill:#17282f;fill-opacity:1;fill-rule:nonzero;stroke:none"
         id="path300" />
    </g>
  </g>
</svg>
