<?xml version="1.0" encoding="UTF-8" standalone="no"?>
<!-- Created with Inkscape (http://www.inkscape.org/) -->

<svg
   version="1.1"
   id="svg2"
   width="666.66669"
   height="666.66669"
   viewBox="0 0 666.66669 666.66669"
   sodipodi:docname="3918644.eps"
   xmlns:inkscape="http://www.inkscape.org/namespaces/inkscape"
   xmlns:sodipodi="http://sodipodi.sourceforge.net/DTD/sodipodi-0.dtd"
   xmlns="http://www.w3.org/2000/svg"
   xmlns:svg="http://www.w3.org/2000/svg">
  <defs
     id="defs6" />
  <sodipodi:namedview
     id="namedview4"
     pagecolor="#ffffff"
     bordercolor="#000000"
     borderopacity="0.25"
     inkscape:showpageshadow="2"
     inkscape:pageopacity="0.0"
     inkscape:pagecheckerboard="0"
     inkscape:deskcolor="#d1d1d1" />
  <g
     id="g8"
     inkscape:groupmode="layer"
     inkscape:label="ink_ext_XXXXXX"
     transform="matrix(1.3333333,0,0,-1.3333333,0,666.66667)">
    <g
       id="g10"
       transform="scale(0.1)">
      <path
         d="M 0.0351563,0 H 5000.0352 V 5000 H 0.0351563 Z"
         style="fill:#ffffff;fill-opacity:0;fill-rule:nonzero;stroke:none"
         id="path12" />
      <path
         d="m 3.57422,3026.94 84.87888,122.6 H 371.383 v 99.02 H 677.887 V 1923.51 h 99.023 v 683.75 l 61.305,84.88 v 664.88 H 1140 l 84.89,-56.59 v -509.27 h 113.16 v -877.08 h 132.04 v 1018.54 h 259.35 v -999.67 h 94.31 v 462.12 l 89.59,127.31 75.45,-99.02 v -235.77 h 99.02 v 457.39 h 471.56 v -730.9 h 155.6 v 1103.43 h 113.18 v 617.72 h 292.35 v -608.29 h 103.75 V 1914.08 h 193.33 v 348.94 h 193.33 v 462.12 h 419.68 v -443.25 h 226.35 V 1918.8 h 155.6 v 1197.73 h 580.01 V 1593.43 H 0.00390625 L 3.57422,3026.94"
         style="fill:#f5f6f5;fill-opacity:1;fill-rule:nonzero;stroke:none"
         id="path14" />
      <path
         d="M 857.375,4591.36 C 751.32,4537.39 650.016,4468.69 583.434,4373.06 458.988,4194.33 478.148,3954.23 553.461,3750.52 628.773,3546.82 753.512,3362.48 834.172,3160.63 1009.52,2721.8 957.727,2207.17 698.406,1811.65 613.023,1681.42 502,1548.23 515.277,1394.38 c 16.977,-196.77 229.028,-323.55 427.34,-379.03 399.323,-111.69 843.453,-63.6 1204.153,130.4 184.37,99.16 353.32,236.64 561.07,276.47 256.72,49.23 500.49,-58.81 746.95,-166.86 207.98,-91.17 417.87,-182.34 639.09,-179.02 407.19,6.13 749.23,364.27 787.95,751.97 38.73,387.7 -183.12,773.46 -505.3,1014.34 -258.26,193.09 -571.46,303.66 -856.23,458.64 -531.1,289.05 -614.75,842.21 -1090.04,1163.67 -450.21,304.5 -1083.16,375.65 -1572.885,126.4"
         style="fill:#e5f0fa;fill-opacity:1;fill-rule:nonzero;stroke:none"
         id="path16" />
      <path
         d="m 3369.84,865.52 c 0,-69.25 -489.28,-125.411 -1092.84,-125.411 -603.55,0 -1092.82,56.161 -1092.82,125.411 0,69.269 489.27,125.41 1092.82,125.41 603.56,0 1092.84,-56.141 1092.84,-125.41"
         style="fill:#ebebea;fill-opacity:1;fill-rule:nonzero;stroke:none"
         id="path18" />
      <path
         d="M 2929.8,816.969 H 1627.34 c -90.88,0 -164.55,73.672 -164.55,164.551 v 2764.06 c 0,90.88 73.67,164.55 164.55,164.55 H 2929.8 c 90.88,0 164.54,-73.67 164.54,-164.55 V 981.52 c 0,-90.879 -73.66,-164.551 -164.54,-164.551"
         style="fill:#81abdf;fill-opacity:1;fill-rule:nonzero;stroke:none"
         id="path20" />
      <path
         d="M 3006.27,816.969 H 1703.82 c -90.88,0 -164.55,73.672 -164.55,164.551 v 2764.06 c 0,90.88 73.67,164.55 164.55,164.55 h 1302.45 c 90.88,0 164.55,-73.67 164.55,-164.55 V 981.52 c 0,-90.879 -73.67,-164.551 -164.55,-164.551"
         style="fill:#9bbfe8;fill-opacity:1;fill-rule:nonzero;stroke:none"
         id="path22" />
      <path
         d="m 1632.74,1139.88 h 1461.6 v 2574.8 h -1461.6 z"
         style="fill:#c3e0f5;fill-opacity:1;fill-rule:nonzero;stroke:none"
         id="path24" />
      <path
         d="m 2491.01,989.75 c 0,-61 -49.46,-110.469 -110.47,-110.469 -61.01,0 -110.47,49.469 -110.47,110.469 0,61.02 49.46,110.48 110.47,110.48 61.01,0 110.47,-49.46 110.47,-110.48"
         style="fill:#c3e0f5;fill-opacity:1;fill-rule:nonzero;stroke:none"
         id="path26" />
      <path
         d="m 2656.71,3780.54 h -520.48 c -15.19,0 -27.62,12.43 -27.62,27.62 0,15.18 12.43,27.61 27.62,27.61 h 520.48 c 15.2,0 27.62,-12.43 27.62,-27.61 0,-15.19 -12.42,-27.62 -27.62,-27.62"
         style="fill:#c3e0f5;fill-opacity:1;fill-rule:nonzero;stroke:none"
         id="path28" />
      <path
         d="M 3017.86,3374.77 H 1848.53 c 6.99,11.88 11.01,25.73 11.01,40.52 v 15.63 0 156.29 h 974.52 l 183.8,-84.39 v -128.05"
         style="fill:#d3ebf9;fill-opacity:1;fill-rule:nonzero;stroke:none"
         id="path30" />
      <path
         d="m 1908.23,3060.36 h -199.01 v 212.44 h 242.59 v -34.85 h -43.58 v -177.59"
         style="fill:#d3ebf9;fill-opacity:1;fill-rule:nonzero;stroke:none"
         id="path32" />
      <path
         d="m 2835.74,1865.02 h 182.121 v 212.441 H 2835.74 Z"
         style="fill:#d3ebf9;fill-opacity:1;fill-rule:nonzero;stroke:none"
         id="path34" />
      <path
         d="m 2835.74,1550.6 h 182.121 v 212.438 H 2835.74 Z"
         style="fill:#d3ebf9;fill-opacity:1;fill-rule:nonzero;stroke:none"
         id="path36" />
      <path
         d="m 2835.74,1241.85 h 182.121 v 212.438 H 2835.74 Z"
         style="fill:#d3ebf9;fill-opacity:1;fill-rule:nonzero;stroke:none"
         id="path38" />
      <path
         d="m 2320.99,2177.19 h -611.77 v 781.2 h 199.01 v -673.13 h 412.76 v -108.07"
         style="fill:#d3ebf9;fill-opacity:1;fill-rule:nonzero;stroke:none"
         id="path40" />
      <path
         d="m 3006.47,2174.68 h -170.73 v 2.51 H 2394.7 v 108.07 h 611.77 v -110.58"
         style="fill:#d3ebf9;fill-opacity:1;fill-rule:nonzero;stroke:none"
         id="path42" />
      <path
         d="m 3481.82,2285.26 h -311 v 55.47 h 312.44 c -0.5,-17.86 -0.98,-36.45 -1.44,-55.47"
         style="fill:#d8e6f7;fill-opacity:1;fill-rule:nonzero;stroke:none"
         id="path44" />
      <path
         d="m 3094.34,2285.26 h 76.4805 v 55.4688 H 3094.34 Z"
         style="fill:#7fa2db;fill-opacity:1;fill-rule:nonzero;stroke:none"
         id="path46" />
      <path
         d="m 3094.34,2285.26 h -87.87 v 21.64 H 2394.7 v -21.64 h -73.71 v 55.47 h 692.58 80.77 v -55.47 m -1142.53,673.13 h -43.58 v 101.97 h 43.58 v -101.97"
         style="fill:#acceef;fill-opacity:1;fill-rule:nonzero;stroke:none"
         id="path48" />
      <path
         d="m 1908.23,3060.36 h 43.5781 v 177.59 H 1908.23 Z"
         style="fill:#c1dff5;fill-opacity:1;fill-rule:nonzero;stroke:none"
         id="path50" />
      <path
         d="m 2320.99,2285.26 h -412.76 v 673.13 h 43.58 v -617.66 h 369.18 v -55.47"
         style="fill:#c1dff5;fill-opacity:1;fill-rule:nonzero;stroke:none"
         id="path52" />
      <path
         d="m 2394.7,2285.26 h 611.77 v 21.6367 H 2394.7 Z"
         style="fill:#c1dff5;fill-opacity:1;fill-rule:nonzero;stroke:none"
         id="path54" />
      <path
         d="m 1951.81,2340.73 h 1854.56 v 952.68 H 1951.81 Z"
         style="fill:#f5f6f7;fill-opacity:1;fill-rule:nonzero;stroke:none"
         id="path56" />
      <path
         d="m 3013.57,2340.73 h 802.52 v 952.68 h -802.52 z"
         style="fill:#7ca0da;fill-opacity:1;fill-rule:nonzero;stroke:none"
         id="path58" />
      <path
         d="m 3411.35,2501.78 c -154.26,0 -279.31,125.05 -279.31,279.31 0,69.21 25.17,132.53 66.86,181.33 -31.53,-45.23 -50.02,-100.23 -50.02,-159.54 0,-154.26 125.06,-279.31 279.31,-279.31 21.98,0 43.38,2.54 63.9,7.34 -0.25,-1.74 -0.46,-3.51 -0.63,-5.3 -0.36,-3.68 -0.72,-7.86 -1.07,-12.48 -25.06,-7.39 -51.59,-11.35 -79.04,-11.35"
         style="fill:#5e7cc7;fill-opacity:1;fill-rule:nonzero;stroke:none"
         id="path60" />
      <path
         d="m 3707.49,2802.88 c 0,-154.26 -125.05,-279.31 -279.3,-279.31 -154.25,0 -279.31,125.05 -279.31,279.31 0,154.25 125.06,279.3 279.31,279.3 154.25,0 279.3,-125.05 279.3,-279.3"
         style="fill:#deddda;fill-opacity:1;fill-rule:nonzero;stroke:none"
         id="path62" />
      <path
         d="m 3673.08,2802.88 c 0,-135.25 -109.64,-244.89 -244.89,-244.89 -135.25,0 -244.89,109.64 -244.89,244.89 0,135.25 109.64,244.89 244.89,244.89 135.25,0 244.89,-109.64 244.89,-244.89"
         style="fill:#ffffff;fill-opacity:1;fill-rule:nonzero;stroke:none"
         id="path64" />
      <path
         d="m 3244.63,2640.28 c -38.44,43.26 -61.82,100.18 -61.82,162.6 0,135.25 109.63,244.89 244.89,244.89 0.07,0 0.15,0 0.22,0 -135.12,-0.15 -244.62,-109.73 -244.62,-244.89 0,-60.92 22.25,-116.66 59.06,-159.51 0.75,-1.03 1.51,-2.06 2.27,-3.09"
         style="fill:#e6e5e4;fill-opacity:1;fill-rule:nonzero;stroke:none"
         id="path66" />
      <path
         d="m 3242.36,2643.37 c -36.81,42.85 -59.06,98.59 -59.06,159.51 0,135.16 109.5,244.74 244.62,244.89 80.33,-0.07 151.6,-38.83 196.2,-98.64 -44.85,50.47 -110.22,82.29 -183.05,82.29 -135.26,0 -244.9,-109.64 -244.9,-244.88 0,-53.45 17.14,-102.9 46.19,-143.17"
         style="fill:#f7f7f7;fill-opacity:1;fill-rule:nonzero;stroke:none"
         id="path68" />
      <path
         d="m 3409.02,2645.6 c -8.49,0 -16.38,4.36 -20.89,11.57 l -85.62,136.62 c -7.22,11.53 -3.74,26.74 7.8,33.98 4.07,2.55 8.6,3.76 13.07,3.76 8.21,0 16.24,-4.1 20.91,-11.57 l 63.84,-101.86 117.98,204.91 c 4.55,7.92 12.85,12.35 21.38,12.35 4.17,0 8.4,-1.06 12.28,-3.29 11.8,-6.78 15.85,-21.85 9.05,-33.66 l -138.45,-240.46 c -4.31,-7.49 -12.24,-12.18 -20.9,-12.34 l -0.45,-0.01"
         style="fill:#f7f7f7;fill-opacity:1;fill-rule:nonzero;stroke:none"
         id="path70" />
      <path
         d="m 3417.93,2656 c -8.48,0 -16.37,4.36 -20.89,11.57 l -85.61,136.62 c -7.23,11.53 -3.74,26.74 7.8,33.98 11.54,7.23 26.75,3.73 33.98,-7.81 l 63.83,-101.86 117.97,204.91 c 6.79,11.8 21.87,15.85 33.66,9.06 11.8,-6.78 15.86,-21.85 9.07,-33.66 l -138.45,-240.46 c -4.32,-7.49 -12.25,-12.18 -20.9,-12.34 l -0.46,-0.01"
         style="fill:#9bbfe8;fill-opacity:1;fill-rule:nonzero;stroke:none"
         id="path72" />
      <path
         d="m 2304.41,3051.74 c 0,-74.94 -60.76,-135.69 -135.69,-135.69 -74.94,0 -135.7,60.75 -135.7,135.69 0,74.94 60.76,135.69 135.7,135.69 74.93,0 135.69,-60.75 135.69,-135.69"
         style="fill:#7ca0da;fill-opacity:1;fill-rule:nonzero;stroke:none"
         id="path74" />
      <path
         d="m 2164.98,3032.55 v 0 c -5.23,0 -9.51,4.28 -9.51,9.52 v 103.9 c 0,5.24 4.28,9.52 9.51,9.52 5.24,0 9.52,-4.28 9.52,-9.52 v -103.9 c 0,-5.24 -4.28,-9.52 -9.52,-9.52"
         style="fill:#ffffff;fill-opacity:1;fill-rule:nonzero;stroke:none"
         id="path76" />
      <path
         d="m 2154.43,3041.85 v 0 c 0,5.69 4.64,10.33 10.33,10.33 h 71.45 c 5.69,0 10.34,-4.64 10.34,-10.33 0,-5.69 -4.65,-10.33 -10.34,-10.33 h -71.45 c -5.69,0 -10.33,4.64 -10.33,10.33"
         style="fill:#ffffff;fill-opacity:1;fill-rule:nonzero;stroke:none"
         id="path78" />
      <path
         d="m 2953.15,3074.52 h -570.5 v 44.57 h 570.5 v -44.57"
         style="fill:#e4e4e3;fill-opacity:1;fill-rule:nonzero;stroke:none"
         id="path80" />
      <path
         d="m 2953.15,2991.33 h -570.5 v 44.57 h 570.5 v -44.57"
         style="fill:#e4e4e3;fill-opacity:1;fill-rule:nonzero;stroke:none"
         id="path82" />
      <path
         d="m 2173.28,2622.45 c -36.52,0 -66.13,29.61 -66.13,66.13 0,36.52 29.61,66.13 66.13,66.13 36.52,0 66.13,-29.61 66.13,-66.13 0,-36.52 -29.61,-66.13 -66.13,-66.13 z m 0,168.81 c -62.27,0 -112.75,-50.48 -112.75,-112.75 0,-62.26 111.59,-250.99 112.75,-250.99 0.64,0 112.74,188.73 112.74,250.99 0,62.27 -50.48,112.75 -112.74,112.75"
         style="fill:#7ca0da;fill-opacity:1;fill-rule:nonzero;stroke:none"
         id="path84" />
      <path
         d="m 2953.15,2620.9 h -570.5 v 44.57 h 570.5 v -44.57"
         style="fill:#e4e4e3;fill-opacity:1;fill-rule:nonzero;stroke:none"
         id="path86" />
      <path
         d="m 2752.27,2537.7 h -369.62 v 44.57 h 369.62 v -44.57"
         style="fill:#e4e4e3;fill-opacity:1;fill-rule:nonzero;stroke:none"
         id="path88" />
      <path
         d="M 1462.79,1224.5 H 981.176 v 129.94 c 96.904,71.48 178.034,106.49 179.034,106.91 1.19,0.51 1.74,1.88 1.23,3.07 -0.38,0.89 -1.24,1.43 -2.14,1.43 -0.31,0 -0.62,-0.07 -0.92,-0.2 -1,-0.41 -81.06,-34.96 -177.204,-105.41 v 816.95 H 1462.79 V 1224.5"
         style="fill:#d8e6f7;fill-opacity:1;fill-rule:nonzero;stroke:none"
         id="path90" />
      <path
         d="m 1462.79,1224.5 h 76.4805 v 952.691 H 1462.79 Z"
         style="fill:#638bcf;fill-opacity:1;fill-rule:nonzero;stroke:none"
         id="path92" />
      <path
         d="m 1539.27,1224.5 h 93.4688 v 952.691 H 1539.27 Z"
         style="fill:#7fa2db;fill-opacity:1;fill-rule:nonzero;stroke:none"
         id="path94" />
      <path
         d="m 2835.74,1224.5 h -1203 v 952.69 h 76.48 v -2.77 h 611.77 v 2.77 h 73.71 v -2.51 h 441.04 v -97.22 H 1709.22 V 1865.02 H 2835.74 V 1763.04 H 1709.22 V 1550.6 h 1126.52 v -96.31 H 1709.22 v -212.44 h 1126.52 v -17.35"
         style="fill:#acceef;fill-opacity:1;fill-rule:nonzero;stroke:none"
         id="path96" />
      <path
         d="m 1709.22,1865.02 h 1126.52 v 212.441 H 1709.22 Z"
         style="fill:#c1dff5;fill-opacity:1;fill-rule:nonzero;stroke:none"
         id="path98" />
      <path
         d="m 1709.22,1550.6 h 1126.52 v 212.438 H 1709.22 Z"
         style="fill:#c1dff5;fill-opacity:1;fill-rule:nonzero;stroke:none"
         id="path100" />
      <path
         d="m 1709.22,1241.85 h 1126.52 v 212.438 H 1709.22 Z"
         style="fill:#c1dff5;fill-opacity:1;fill-rule:nonzero;stroke:none"
         id="path102" />
      <path
         d="m 1709.22,2174.42 h 611.77 v 2.7695 h -611.77 z"
         style="fill:#c1dff5;fill-opacity:1;fill-rule:nonzero;stroke:none"
         id="path104" />
      <path
         d="m 2394.7,2174.68 h 441.039 v 2.5117 H 2394.7 Z"
         style="fill:#c1dff5;fill-opacity:1;fill-rule:nonzero;stroke:none"
         id="path106" />
      <path
         d="M 2879.31,1279.96 H 1024.75 v 952.68 h 1854.56 v -952.68"
         style="fill:#f5f6f7;fill-opacity:1;fill-rule:nonzero;stroke:none"
         id="path108" />
      <path
         d="m 2889.04,1279.96 h -802.53 v 952.68 h 802.53 v -952.68"
         style="fill:#dd3139;fill-opacity:1;fill-rule:nonzero;stroke:none"
         id="path110" />
      <path
         d="m 2513.66,1768.29 c -49.24,0 -89.18,39.92 -89.18,89.18 0,49.26 39.94,89.18 89.18,89.18 49.26,0 89.19,-39.92 89.19,-89.18 0,-49.26 -39.93,-89.18 -89.19,-89.18 z m 0,227.63 c -83.96,0 -152.03,-68.06 -152.03,-152.03 0,-83.97 150.47,-338.47 152.03,-338.47 0.87,0 152.05,254.5 152.05,338.47 0,83.97 -68.07,152.03 -152.05,152.03"
         style="fill:#ffffff;fill-opacity:1;fill-rule:nonzero;stroke:none"
         id="path112" />
      <path
         d="M 1973.6,1886.98 H 1103 v 44.57 h 870.6 v -44.57"
         style="fill:#e4e4e3;fill-opacity:1;fill-rule:nonzero;stroke:none"
         id="path114" />
      <path
         d="M 1667.05,1803.79 H 1103 v 44.57 h 564.05 v -44.57"
         style="fill:#e4e4e3;fill-opacity:1;fill-rule:nonzero;stroke:none"
         id="path116" />
      <path
         d="M 1973.6,1686.91 H 1103 v 44.57 h 870.6 v -44.57"
         style="fill:#e4e4e3;fill-opacity:1;fill-rule:nonzero;stroke:none"
         id="path118" />
      <path
         d="M 1667.05,1603.72 H 1103 v 44.56 h 564.05 v -44.56"
         style="fill:#e4e4e3;fill-opacity:1;fill-rule:nonzero;stroke:none"
         id="path120" />
      <path
         d="M 1973.6,1465.06 H 1103 v 44.57 h 870.6 v -44.57"
         style="fill:#e4e4e3;fill-opacity:1;fill-rule:nonzero;stroke:none"
         id="path122" />
      <path
         d="M 1667.05,1381.85 H 1103 v 44.57 h 564.05 v -44.57"
         style="fill:#e4e4e3;fill-opacity:1;fill-rule:nonzero;stroke:none"
         id="path124" />
      <path
         d="m 1144.64,2011.86 c 0,-5.16 1.05,-8.81 3.16,-10.91 2.11,-2.11 4.93,-3.16 8.47,-3.16 3.53,0 6.35,1.05 8.46,3.16 2.11,2.1 3.17,5.75 3.17,10.91 v 77.12 c 0,5.17 -1.06,8.8 -3.17,10.91 -2.11,2.11 -4.93,3.16 -8.46,3.16 -3.54,0 -6.36,-1.05 -8.47,-3.16 -2.11,-2.11 -3.16,-5.74 -3.16,-10.91 z m -22.44,75.69 c 0,11.56 2.92,20.44 8.77,26.62 5.85,6.19 14.28,9.28 25.3,9.28 11.01,0 19.45,-3.09 25.29,-9.28 5.85,-6.18 8.78,-15.06 8.78,-26.62 v -74.26 c 0,-11.55 -2.93,-20.43 -8.78,-26.62 -5.84,-6.19 -14.28,-9.28 -25.29,-9.28 -11.02,0 -19.45,3.09 -25.3,9.28 -5.85,6.19 -8.77,15.07 -8.77,26.62 v 74.26"
         style="fill:#e4e4e3;fill-opacity:1;fill-rule:nonzero;stroke:none"
         id="path126" />
      <path
         d="m 1236.65,2049.2 c 3.53,0 6.35,1.05 8.46,3.16 2.11,2.11 3.16,5.74 3.16,10.91 v 25.71 c 0,5.17 -1.05,8.77 -3.16,10.81 -2.11,2.04 -4.93,3.06 -8.46,3.06 -3.54,0 -6.36,-1.02 -8.47,-3.06 -2.11,-2.04 -3.16,-5.64 -3.16,-10.81 v -25.71 c 0,-5.17 1.05,-8.8 3.16,-10.91 2.11,-2.11 4.93,-3.16 8.47,-3.16 z m 34.07,-34.68 c 0,-12.11 -2.79,-21.32 -8.37,-27.65 -5.58,-6.32 -14.21,-9.48 -25.91,-9.48 -11.01,0 -19.35,3.09 -24.99,9.28 -5.64,6.19 -8.46,15.07 -8.46,26.62 v 3.68 h 21.21 v -5.11 c 0,-5.16 1.06,-8.81 3.17,-10.91 2.1,-2.11 4.92,-3.16 8.46,-3.16 3.94,0 7,1.22 9.18,3.67 2.17,2.45 3.26,7.07 3.26,13.87 v 26.11 c -3.94,-8.43 -10.88,-12.64 -20.8,-12.64 -8.3,0 -14.52,2.78 -18.67,8.36 -4.15,5.57 -6.22,13.67 -6.22,24.27 v 26.12 c 0,11.56 2.92,20.44 8.77,26.62 5.84,6.19 14.28,9.28 25.3,9.28 11.01,0 19.45,-3.09 25.29,-9.28 5.85,-6.18 8.78,-15.06 8.78,-26.62 v -73.03"
         style="fill:#e4e4e3;fill-opacity:1;fill-rule:nonzero;stroke:none"
         id="path128" />
      <path
         d="m 1307.23,2000.64 v -21.62 h -21.62 v 21.62 z m 0,77.73 v -21.63 h -21.62 v 21.63 h 21.62"
         style="fill:#e4e4e3;fill-opacity:1;fill-rule:nonzero;stroke:none"
         id="path130" />
      <path
         d="m 1344.16,2011.86 c 0,-5.16 1.05,-8.81 3.16,-10.91 2.11,-2.11 4.93,-3.16 8.46,-3.16 3.54,0 6.36,1.05 8.47,3.16 2.11,2.1 3.16,5.75 3.16,10.91 v 77.12 c 0,5.17 -1.05,8.8 -3.16,10.91 -2.11,2.11 -4.93,3.16 -8.47,3.16 -3.53,0 -6.35,-1.05 -8.46,-3.16 -2.11,-2.11 -3.16,-5.74 -3.16,-10.91 z m -22.44,75.69 c 0,11.56 2.92,20.44 8.77,26.62 5.85,6.19 14.28,9.28 25.29,9.28 11.02,0 19.45,-3.09 25.3,-9.28 5.85,-6.18 8.78,-15.06 8.78,-26.62 v -74.26 c 0,-11.55 -2.93,-20.43 -8.78,-26.62 -5.85,-6.19 -14.28,-9.28 -25.3,-9.28 -11.01,0 -19.44,3.09 -25.29,9.28 -5.85,6.19 -8.77,15.07 -8.77,26.62 v 74.26"
         style="fill:#e4e4e3;fill-opacity:1;fill-rule:nonzero;stroke:none"
         id="path132" />
      <path
         d="m 1424.53,2025.12 v -13.26 c 0,-5.16 1.06,-8.77 3.17,-10.81 2.1,-2.04 4.92,-3.06 8.46,-3.06 3.54,0 6.36,1.02 8.47,3.06 2.11,2.04 3.16,5.65 3.16,10.81 v 31.42 c 0,5.16 -1.05,8.81 -3.16,10.92 -2.11,2.11 -4.93,3.16 -8.47,3.16 -3.54,0 -6.36,-1.05 -8.46,-3.16 -2.11,-2.11 -3.17,-5.76 -3.17,-10.92 V 2039 h -21.21 l 4.08,82.82 h 59.16 v -20.4 h -38.97 l -1.83,-34.07 c 4.21,6.94 10.74,10.41 19.58,10.41 8.29,0 14.52,-2.79 18.67,-8.37 4.15,-5.57 6.22,-13.66 6.22,-24.28 v -31.82 c 0,-11.55 -2.82,-20.43 -8.47,-26.62 -5.64,-6.19 -13.97,-9.28 -24.99,-9.28 -11.01,0 -19.34,3.09 -24.99,9.28 -5.64,6.19 -8.46,15.07 -8.46,26.62 v 11.83 h 21.21"
         style="fill:#e4e4e3;fill-opacity:1;fill-rule:nonzero;stroke:none"
         id="path134" />
      <path
         d="m 2746.78,4162.81 c -8.52,10.77 -17.19,21.52 -25.95,32.15 l 2.56,5.58 c 1.04,6.93 5.67,13.18 14.18,15.3 l 36.76,9.19 c -0.7,-1.65 -1.15,-3.39 -1.35,-5.18 l -26.2,-57.04"
         style="fill:#ffffff;fill-opacity:1;fill-rule:nonzero;stroke:none"
         id="path136" />
      <path
         d="m 3176.2,3432.41 c -1.75,0 -3.55,0.22 -5.38,0.66 v 62.94 l 39.4,-18.09 -4.24,-9.23 v 0 l -12.01,-26.16 -0.06,0.03 c -3.32,-6.03 -10,-10.15 -17.71,-10.15 m -545.44,477.72 h -40.72 l 130.79,284.83 c 8.76,-10.63 17.43,-21.38 25.95,-32.15 l -116.02,-252.68"
         style="fill:#d8e6f7;fill-opacity:1;fill-rule:nonzero;stroke:none"
         id="path138" />
      <path
         d="m 3170.82,3433.07 c -1.48,0.37 -2.98,0.89 -4.48,1.58 l -72,33.06 v 63.42 l 76.48,-35.12 v -62.94 m -476.25,281.61 h -138.13 l -27.4,12.58 c -14.09,6.47 -16.61,22.47 -8.45,31.61 l 4.37,9.52 4.42,9.62 0.5,1.11 0.66,1.42 h 40.72 l -3.5,-7.63 v 0 l 126.81,-58.23 m -97.95,121.09 h -40.72 l 34.14,74.36 h 40.72 l -34.14,-74.36"
         style="fill:#7fa2db;fill-opacity:1;fill-rule:nonzero;stroke:none"
         id="path140" />
      <path
         d="m 3094.34,3467.71 -76.48,35.11 v 63.42 l 76.48,-35.11 v -63.42 m -122.15,119.5 h -138.13 l -277.62,127.47 h 138.13 l 171.81,-78.88 78.85,-36.2 v -0.01 l 26.96,-12.38"
         style="fill:#acceef;fill-opacity:1;fill-rule:nonzero;stroke:none"
         id="path142" />
      <path
         d="m 2571.26,3780.54 h -40.72 l 25.36,55.23 h 40.72 l -25.36,-55.23"
         style="fill:#acceef;fill-opacity:1;fill-rule:nonzero;stroke:none"
         id="path144" />
      <path
         d="m 3017.86,3502.82 -183.8,84.39 h 138.13 l 45.67,-20.97 v -63.42"
         style="fill:#c1dff5;fill-opacity:1;fill-rule:nonzero;stroke:none"
         id="path146" />
      <path
         d="m 2796.62,4238.09 55.48,120.84 33.63,-15.44 -43.11,-93.9 -12.88,-3.22 -33.12,-8.28"
         style="fill:#ffffff;fill-opacity:1;fill-rule:nonzero;stroke:none"
         id="path148" />
      <path
         d="m 3423.32,3905.64 -637.29,292.61 c -18.24,8.38 -17.33,32.87 1.42,37.55 l 42.29,10.57 34.31,8.58 359.25,89.8 c 10.22,2.55 21.4,-2.58 26.13,-11.99 l 166.03,-330.99 16.01,-31.89 19.4,-38.69 c 8.66,-17.27 -9.31,-33.93 -27.55,-25.55"
         style="fill:#faca3b;fill-opacity:1;fill-rule:nonzero;stroke:none"
         id="path150" />
      <path
         d="m 3412.69,3928.99 -11.3,5.19 22.93,49.94 7.15,-14.24 -18.78,-40.89 m -592.39,272 -9.41,4.32 18.85,41.06 12.88,3.22 -22.32,-48.6"
         style="fill:#f89a12;fill-opacity:1;fill-rule:nonzero;stroke:none"
         id="path152" />
      <path
         d="m 3250.93,3477.91 -676.08,310.43 199.21,433.88 676.09,-310.43 -199.22,-433.88"
         style="fill:#d59a2a;fill-opacity:1;fill-rule:nonzero;stroke:none"
         id="path154" />
      <path
         d="m 3183.92,3555.88 -508.79,233.6 c -19.96,9.17 -28.72,32.79 -19.55,52.75 l 246.4,536.65 581.09,-266.8 -246.41,-536.65 c -9.16,-19.97 -32.78,-28.72 -52.74,-19.55"
         style="fill:#f5f6f7;fill-opacity:1;fill-rule:nonzero;stroke:none"
         id="path156" />
      <path
         d="m 3376.71,4070.17 -426.57,195.86 15.3,33.32 426.56,-195.86 -15.29,-33.32"
         style="fill:#e4e4e3;fill-opacity:1;fill-rule:nonzero;stroke:none"
         id="path158" />
      <path
         d="m 3197.94,4076.92 -276.37,126.9 15.31,33.32 276.36,-126.89 -15.3,-33.33"
         style="fill:#e4e4e3;fill-opacity:1;fill-rule:nonzero;stroke:none"
         id="path160" />
      <path
         d="m 3314.82,3935.38 -426.58,195.86 15.31,33.33 426.57,-195.86 -15.3,-33.33"
         style="fill:#e4e4e3;fill-opacity:1;fill-rule:nonzero;stroke:none"
         id="path162" />
      <path
         d="m 3136.06,3942.14 -276.37,126.9 15.29,33.32 276.38,-126.89 -15.3,-33.33"
         style="fill:#e4e4e3;fill-opacity:1;fill-rule:nonzero;stroke:none"
         id="path164" />
      <path
         d="m 2774.06,4222.22 -206.3,-449.31 676.09,-310.43 206.3,449.31 -49.27,22.62 -395.63,-100.13 -185.33,366.88 -45.86,21.06"
         style="fill:#f2b32e;fill-opacity:1;fill-rule:nonzero;stroke:none"
         id="path166" />
      <path
         d="m 3039.09,3843.29 -20.69,21.3 0.74,-0.05 -0.42,0.73 382.16,69.14 -361.79,-91.12"
         style="fill:#edf0f0;fill-opacity:1;fill-rule:nonzero;stroke:none"
         id="path168" />
      <path
         d="m 3018.4,3864.59 -29.37,1.8 -8.79,17.4 0.17,0.37 -0.32,-0.07 -13.85,27.42 -70.39,140.92 17.75,-8.15 105.12,-179.01 -0.84,-0.15 0.52,-0.53 m -145.36,233.53 -50.98,102.06 59.11,-100.66 -6.19,2.84 -1.94,-4.24"
         style="fill:#edf0f0;fill-opacity:1;fill-rule:nonzero;stroke:none"
         id="path170" />
      <path
         d="m 2913.6,4044.28 -17.75,8.15 -22.81,45.69 1.94,4.24 6.19,-2.84 32.43,-55.24"
         style="fill:#d7d6d4;fill-opacity:1;fill-rule:nonzero;stroke:none"
         id="path172" />
      <path
         d="m 2989.03,3866.39 -0.27,0.02 -8.6,17.21 0.08,0.17 8.79,-17.4 m -9.09,17.67 -13.7,27.45 13.85,-27.42 -0.15,-0.03"
         style="fill:#ef961c;fill-opacity:1;fill-rule:nonzero;stroke:none"
         id="path174" />
      <path
         d="m 3019.14,3864.54 -0.74,0.05 -0.52,0.53 0.84,0.15 0.42,-0.73"
         style="fill:#e3e6e7;fill-opacity:1;fill-rule:nonzero;stroke:none"
         id="path176" />
      <path
         d="m 3243.85,3462.48 -33.63,15.44 v 0.01 l 33.63,-15.45 12.01,26.16 v 0 l -12.01,-26.16"
         style="fill:#d8e6f7;fill-opacity:1;fill-rule:nonzero;stroke:none"
         id="path178" />
      <path
         d="m 3210.22,3477.92 -39.4,18.09 v 0 l 39.4,-18.08 v -0.01"
         style="fill:#c7d8f1;fill-opacity:1;fill-rule:nonzero;stroke:none"
         id="path180" />
      <path
         d="m 3170.82,3496.01 -76.48,35.12 v 0 l 76.48,-35.12 v 0"
         style="fill:#607ec8;fill-opacity:1;fill-rule:nonzero;stroke:none"
         id="path182" />
      <path
         d="m 3094.34,3531.13 -76.48,35.11 v 0 l 76.48,-35.11 v 0 m -122.15,56.08 v 0 l -26.96,12.38 26.96,-12.38"
         style="fill:#94b8e5;fill-opacity:1;fill-rule:nonzero;stroke:none"
         id="path184" />
      <path
         d="m 3017.86,3566.24 -45.67,20.97 v 0 l 45.67,-20.97 v 0"
         style="fill:#a9cdee;fill-opacity:1;fill-rule:nonzero;stroke:none"
         id="path186" />
      <path
         d="m 3243.85,3462.48 -33.63,15.45 -39.4,18.08 -76.48,35.12 -76.48,35.11 -45.67,20.97 -26.96,12.39 114.04,248.35 196.59,-359.31 -12.01,-26.16"
         style="fill:#ef961c;fill-opacity:1;fill-rule:nonzero;stroke:none"
         id="path188" />
      <path
         d="m 2694.58,3714.68 h -0.01 l -126.81,58.23 v 0 l 126.82,-58.23"
         style="fill:#607ec8;fill-opacity:1;fill-rule:nonzero;stroke:none"
         id="path190" />
      <path
         d="m 2866.38,3635.8 -171.81,78.88 h 0.01 l 171.8,-78.88 v 0"
         style="fill:#94b8e5;fill-opacity:1;fill-rule:nonzero;stroke:none"
         id="path192" />
      <path
         d="m 2866.38,3635.8 -171.8,78.88 -126.82,58.23 12.01,26.16 400.17,84.99 0.22,-0.44 -113.78,-247.82"
         style="fill:#ef961c;fill-opacity:1;fill-rule:nonzero;stroke:none"
         id="path194" />
      <path
         d="m 2980.24,3883.79 -0.15,0.3 0.32,0.07 -0.17,-0.37"
         style="fill:#e3e6e7;fill-opacity:1;fill-rule:nonzero;stroke:none"
         id="path196" />
      <path
         d="m 2980.16,3883.62 -0.22,0.44 0.15,0.03 0.15,-0.3 -0.08,-0.17"
         style="fill:#e77318;fill-opacity:1;fill-rule:nonzero;stroke:none"
         id="path198" />
      <path
         d="m 2580.35,3784.76 435.85,108.95 c 10.22,2.56 21.41,-2.58 26.13,-11.99 l 201.44,-401.57 c 8.66,-17.27 -9.3,-33.93 -27.55,-25.55 l -637.29,292.61 c -18.24,8.38 -17.32,32.87 1.42,37.55"
         style="fill:#faca3b;fill-opacity:1;fill-rule:nonzero;stroke:none"
         id="path200" />
      <path
         d="m 1462.79,3295.43 h -77.83 c -2.91,13.55 -6.47,26.86 -10.65,39.9 h 88.48 v -39.9"
         style="fill:#d8e6f7;fill-opacity:1;fill-rule:nonzero;stroke:none"
         id="path202" />
      <path
         d="m 1462.79,3295.43 h 76.4805 v 39.9023 H 1462.79 Z"
         style="fill:#638bcf;fill-opacity:1;fill-rule:nonzero;stroke:none"
         id="path204" />
      <path
         d="m 1539.27,3295.43 h 93.4688 v 39.9023 H 1539.27 Z"
         style="fill:#7fa2db;fill-opacity:1;fill-rule:nonzero;stroke:none"
         id="path206" />
      <path
         d="m 1739.68,3295.43 h -106.94 v 39.9 h 146.84 c 11.75,0 22.91,2.53 32.96,7.09 -12.55,-27.72 -40.46,-46.99 -72.86,-46.99"
         style="fill:#acceef;fill-opacity:1;fill-rule:nonzero;stroke:none"
         id="path208" />
      <path
         d="m 814.645,3593.96 v 421.06 c 0,32.4 19.281,60.3 47,72.86 -4.555,-10.05 -7.09,-21.21 -7.09,-32.96 v -446.68 c -13.614,-4.1 -26.922,-8.87 -39.91,-14.28 m 839.735,540.92 h -67 v 0.29 c 0,18.43 15.07,33.5 33.5,33.5 18.42,0 33.5,-15.07 33.5,-33.5 v -0.29 m -611.94,0 h -67.002 v 0.29 c 0,18.43 15.074,33.5 33.502,33.5 18.42,0 33.5,-15.07 33.5,-33.5 v -0.29"
         style="fill:#d8e6f7;fill-opacity:1;fill-rule:nonzero;stroke:none"
         id="path210" />
      <path
         d="m 1859.54,4054.92 v -639.63 c 0,-44.16 -35.8,-79.96 -79.96,-79.96 H 934.504 c -44.156,0 -79.949,35.8 -79.949,79.96 v 639.63 c 0,44.15 35.793,79.96 79.949,79.96 h 845.076 c 44.16,0 79.96,-35.81 79.96,-79.96"
         style="fill:#f5f6f7;fill-opacity:1;fill-rule:nonzero;stroke:none"
         id="path212" />
      <path
         d="M 1779.58,3350.96 H 934.504 c -44.156,0 -79.949,35.8 -79.949,79.96 v -15.63 c 0,-44.16 35.793,-79.96 79.949,-79.96 h 845.076 c 44.16,0 79.96,35.8 79.96,79.96 v 15.63 c 0,-44.16 -35.8,-79.96 -79.96,-79.96"
         style="fill:#e7e7e6;fill-opacity:1;fill-rule:nonzero;stroke:none"
         id="path214" />
      <path
         d="m 1859.54,4054.92 v -98.69 H 854.555 v 98.69 c 0,44.15 35.793,79.96 79.949,79.96 h 845.076 c 44.16,0 79.96,-35.81 79.96,-79.96"
         style="fill:#dd3139;fill-opacity:1;fill-rule:nonzero;stroke:none"
         id="path216" />
      <path
         d="m 1016.76,3804.05 h -96.319 v 96.33 h 96.319 v -96.33"
         style="fill:#deddda;fill-opacity:1;fill-rule:nonzero;stroke:none"
         id="path218" />
      <path
         d="m 1173.1,3804.05 h -96.33 v 96.33 h 96.33 v -96.33"
         style="fill:#deddda;fill-opacity:1;fill-rule:nonzero;stroke:none"
         id="path220" />
      <path
         d="m 1329.44,3804.05 h -96.33 v 96.33 h 96.33 v -96.33"
         style="fill:#deddda;fill-opacity:1;fill-rule:nonzero;stroke:none"
         id="path222" />
      <path
         d="m 1485.77,3804.05 h -96.32 v 96.33 h 96.32 v -96.33"
         style="fill:#deddda;fill-opacity:1;fill-rule:nonzero;stroke:none"
         id="path224" />
      <path
         d="m 1642.1,3804.05 h -96.32 v 96.33 h 96.32 v -96.33"
         style="fill:#deddda;fill-opacity:1;fill-rule:nonzero;stroke:none"
         id="path226" />
      <path
         d="m 1798.44,3804.05 h -96.33 v 96.33 h 96.33 v -96.33"
         style="fill:#deddda;fill-opacity:1;fill-rule:nonzero;stroke:none"
         id="path228" />
      <path
         d="m 1016.76,3668.07 h -96.319 v 96.32 h 96.319 v -96.32"
         style="fill:#deddda;fill-opacity:1;fill-rule:nonzero;stroke:none"
         id="path230" />
      <path
         d="m 1173.1,3668.07 h -96.33 v 96.32 h 96.33 v -96.32"
         style="fill:#deddda;fill-opacity:1;fill-rule:nonzero;stroke:none"
         id="path232" />
      <path
         d="m 1329.44,3668.07 h -96.33 v 96.32 h 96.33 v -96.32"
         style="fill:#deddda;fill-opacity:1;fill-rule:nonzero;stroke:none"
         id="path234" />
      <path
         d="m 1485.77,3668.07 h -96.32 v 96.32 h 96.32 v -96.32"
         style="fill:#deddda;fill-opacity:1;fill-rule:nonzero;stroke:none"
         id="path236" />
      <path
         d="m 1642.1,3668.07 h -96.32 v 96.32 h 96.32 v -96.32"
         style="fill:#deddda;fill-opacity:1;fill-rule:nonzero;stroke:none"
         id="path238" />
      <path
         d="m 1798.44,3668.07 h -96.33 v 96.32 h 96.33 v -96.32"
         style="fill:#deddda;fill-opacity:1;fill-rule:nonzero;stroke:none"
         id="path240" />
      <path
         d="m 920.441,3532.08 h 96.3281 v 96.3164 H 920.441 Z"
         style="fill:#deddda;fill-opacity:1;fill-rule:nonzero;stroke:none"
         id="path242" />
      <path
         d="m 1076.77,3532.08 h 96.332 v 96.3164 h -96.332 z"
         style="fill:#deddda;fill-opacity:1;fill-rule:nonzero;stroke:none"
         id="path244" />
      <path
         d="m 1233.11,3532.08 h 96.332 v 96.3164 h -96.332 z"
         style="fill:#deddda;fill-opacity:1;fill-rule:nonzero;stroke:none"
         id="path246" />
      <path
         d="m 1485.77,3532.08 h -96.32 v 96.33 h 96.32 v -96.33"
         style="fill:#deddda;fill-opacity:1;fill-rule:nonzero;stroke:none"
         id="path248" />
      <path
         d="m 1642.1,3532.08 h -96.32 v 96.33 h 96.32 v -96.33"
         style="fill:#deddda;fill-opacity:1;fill-rule:nonzero;stroke:none"
         id="path250" />
      <path
         d="m 1798.44,3532.08 h -96.33 v 96.33 h 96.33 v -96.33"
         style="fill:#deddda;fill-opacity:1;fill-rule:nonzero;stroke:none"
         id="path252" />
      <path
         d="m 920.441,3396.1 h 96.3281 v 96.3203 H 920.441 Z"
         style="fill:#deddda;fill-opacity:1;fill-rule:nonzero;stroke:none"
         id="path254" />
      <path
         d="m 1076.77,3396.1 h 96.332 v 96.3203 h -96.332 z"
         style="fill:#deddda;fill-opacity:1;fill-rule:nonzero;stroke:none"
         id="path256" />
      <path
         d="m 1233.11,3396.1 h 96.332 v 96.3203 h -96.332 z"
         style="fill:#deddda;fill-opacity:1;fill-rule:nonzero;stroke:none"
         id="path258" />
      <path
         d="m 1485.77,3396.1 h -96.32 v 96.32 h 96.32 v -96.32"
         style="fill:#deddda;fill-opacity:1;fill-rule:nonzero;stroke:none"
         id="path260" />
      <path
         d="m 1642.1,3396.1 h -96.32 v 96.32 h 96.32 v -96.32"
         style="fill:#deddda;fill-opacity:1;fill-rule:nonzero;stroke:none"
         id="path262" />
      <path
         d="m 1798.44,3396.1 h -96.33 v 96.32 h 96.33 v -96.32"
         style="fill:#deddda;fill-opacity:1;fill-rule:nonzero;stroke:none"
         id="path264" />
      <path
         d="m 1859.54,3956.23 v -11.18 H 854.555 v 11.18 H 1859.54"
         style="fill:#e7e7e6;fill-opacity:1;fill-rule:nonzero;stroke:none"
         id="path266" />
      <path
         d="m 1098.72,4042.57 c 0,-27.14 -22,-49.14 -49.13,-49.14 -27.14,0 -49.14,22 -49.14,49.14 0,27.13 22,49.13 49.14,49.13 27.13,0 49.13,-22 49.13,-49.13"
         style="fill:#ffffff;fill-opacity:1;fill-rule:nonzero;stroke:none"
         id="path268" />
      <path
         d="m 1709.17,4042.57 c 0,-27.14 -22,-49.14 -49.13,-49.14 -27.14,0 -49.14,22 -49.14,49.14 0,27.13 22,49.13 49.14,49.13 27.13,0 49.13,-22 49.13,-49.13"
         style="fill:#ffffff;fill-opacity:1;fill-rule:nonzero;stroke:none"
         id="path270" />
      <path
         d="m 1048.84,4016.51 v 0 c -18.42,0 -33.5,15.08 -33.5,33.5 v 125.07 c 0,18.42 15.08,33.5 33.5,33.5 18.43,0 33.5,-15.08 33.5,-33.5 v -125.07 c 0,-18.42 -15.07,-33.5 -33.5,-33.5"
         style="fill:#3449a5;fill-opacity:1;fill-rule:nonzero;stroke:none"
         id="path272" />
      <path
         d="m 1660.78,4016.51 v 0 c -18.42,0 -33.5,15.08 -33.5,33.5 v 125.07 c 0,18.42 15.08,33.5 33.5,33.5 18.43,0 33.5,-15.08 33.5,-33.5 v -125.07 c 0,-18.42 -15.07,-33.5 -33.5,-33.5"
         style="fill:#3449a5;fill-opacity:1;fill-rule:nonzero;stroke:none"
         id="path274" />
      <path
         d="m 838.215,2811.55 c -61.113,21.2 -115.781,56.15 -160.328,101.17 v 335.84 H 558.801 c 9.301,94.91 50.289,180.54 112.238,246.14 57.172,-110.22 117.274,-219.31 163.133,-334.07 1.359,-3.4 2.711,-6.83 4.043,-10.24 v -338.84"
         style="fill:#ffffff;fill-opacity:1;fill-rule:nonzero;stroke:none"
         id="path276" />
      <path
         d="m 927.047,2791.29 c -30.738,3.55 -60.492,10.43 -88.832,20.26 v 338.84 c 45.203,-115.74 74.687,-236.62 88.832,-359.1 m -249.16,121.43 c -74.864,75.65 -121.098,179.69 -121.098,294.53 0,13.94 0.68,27.72 2.012,41.31 h 119.086 v -335.84"
         style="fill:#ededed;fill-opacity:1;fill-rule:nonzero;stroke:none"
         id="path278" />
      <path
         d="m 975.523,2788.52 c -16.402,0 -32.566,0.94 -48.476,2.77 -14.145,122.48 -43.629,243.36 -88.832,359.1 -1.332,3.41 -2.684,6.84 -4.043,10.24 -45.859,114.76 -105.961,223.85 -163.133,334.07 40.063,42.42 88.906,76.48 143.606,99.26 v -202.95 -15.63 c 0,-44.16 35.796,-79.95 79.957,-79.95 h 490.358 c 6.09,-28.43 9.3,-57.93 9.3,-88.18 0,-231.26 -187.48,-418.73 -418.737,-418.73"
         style="fill:#d8e6f7;fill-opacity:1;fill-rule:nonzero;stroke:none"
         id="path280" />
      <path
         d="M 1384.96,3295.43 H 894.602 c -44.161,0 -79.957,35.79 -79.957,79.95 v 15.63 202.95 c 12.988,5.41 26.296,10.18 39.91,14.28 v -192.95 0 c 0,-44.16 35.793,-79.96 79.949,-79.96 h 439.806 c 4.18,-13.04 7.74,-26.35 10.65,-39.9"
         style="fill:#c7d8f1;fill-opacity:1;fill-rule:nonzero;stroke:none"
         id="path282" />
      <path
         d="M 1368.95,3350.96 H 934.504 c -44.156,0 -79.949,35.8 -79.949,79.96 v -15.63 0 192.95 c 21.297,6.42 43.308,11.18 65.886,14.15 v -90.31 h 96.329 v 91.9 c 20.46,-2 40.51,-5.48 60,-10.32 v -81.58 h 96.33 v 44.45 c 21.16,-11.34 41.22,-24.44 60.01,-39.12 v -5.33 h 6.67 c 15.03,-12.24 29.18,-25.49 42.37,-39.66 h -49.04 v -96.32 h 96.33 v 35.05 c 15.88,-25.06 29.17,-51.91 39.51,-80.19 m -292.18,141.46 v -96.32 h 96.33 v 96.32 h -96.33 m -156.329,0 v -96.32 h 96.329 v 96.32 h -96.329"
         style="fill:#edf0f0;fill-opacity:1;fill-rule:nonzero;stroke:none"
         id="path284" />
      <path
         d="M 1374.31,3335.33 H 934.504 c -44.156,0 -79.949,35.8 -79.949,79.96 v 0 15.63 c 0,-44.16 35.793,-79.96 79.949,-79.96 h 434.446 c 1.88,-5.16 3.67,-10.38 5.36,-15.63"
         style="fill:#dbdad8;fill-opacity:1;fill-rule:nonzero;stroke:none"
         id="path286" />
      <path
         d="m 1016.77,3532.08 h -96.329 v 90.31 c 18.028,2.37 36.411,3.59 55.082,3.59 13.918,0 27.677,-0.68 41.247,-2 v -91.9"
         style="fill:#cbcac8;fill-opacity:1;fill-rule:nonzero;stroke:none"
         id="path288" />
      <path
         d="m 1173.1,3532.08 h -96.33 v 81.58 c 33.94,-8.43 66.23,-20.99 96.33,-37.13 v -44.45"
         style="fill:#cbcac8;fill-opacity:1;fill-rule:nonzero;stroke:none"
         id="path290" />
      <path
         d="m 1239.78,3532.08 h -6.67 v 5.33 c 2.24,-1.75 4.47,-3.53 6.67,-5.33"
         style="fill:#cbcac8;fill-opacity:1;fill-rule:nonzero;stroke:none"
         id="path292" />
      <path
         d="m 920.441,3396.1 h 96.3281 v 96.3203 H 920.441 Z"
         style="fill:#cbcac8;fill-opacity:1;fill-rule:nonzero;stroke:none"
         id="path294" />
      <path
         d="m 1076.77,3396.1 h 96.332 v 96.3203 h -96.332 z"
         style="fill:#cbcac8;fill-opacity:1;fill-rule:nonzero;stroke:none"
         id="path296" />
      <path
         d="m 1329.44,3396.1 h -96.33 v 96.32 h 49.04 c 17.56,-18.88 33.42,-39.4 47.29,-61.27 v -35.05"
         style="fill:#cbcac8;fill-opacity:1;fill-rule:nonzero;stroke:none"
         id="path298" />
      <path
         d="m 1347.7,3237.18 c 0,-231.27 -187.47,-418.74 -418.731,-418.74 -231.262,0 -418.739,187.47 -418.739,418.74 0,231.26 187.477,418.73 418.739,418.73 231.261,0 418.731,-187.47 418.731,-418.73"
         style="fill:#7ca0da;fill-opacity:1;fill-rule:nonzero;stroke:none"
         id="path300" />
      <path
         d="m 1279.88,3237.18 c 0,-193.8 -157.11,-350.91 -350.911,-350.91 -193.801,0 -350.91,157.11 -350.91,350.91 0,193.8 157.109,350.91 350.91,350.91 193.801,0 350.911,-157.11 350.911,-350.91"
         style="fill:#ffffff;fill-opacity:1;fill-rule:nonzero;stroke:none"
         id="path302" />
      <path
         d="m 584.531,3226.52 c 0,193.8 157.114,350.9 350.914,350.9 126.095,0 236.605,-66.53 298.465,-166.38 -60.46,105.73 -174.24,177.05 -304.765,177.05 -193.801,0 -350.911,-157.11 -350.911,-350.91 0,-67.72 19.231,-130.91 52.446,-184.53 -29.313,51.27 -46.149,110.58 -46.149,173.87"
         style="fill:#ececec;fill-opacity:1;fill-rule:nonzero;stroke:none"
         id="path304" />
      <path
         d="m 928.969,3491.12 v 0 c -4.797,0 -8.723,3.93 -8.723,8.72 V 3558 c 0,4.8 3.926,8.73 8.723,8.73 4.797,0 8.722,-3.93 8.722,-8.73 v -58.16 c 0,-4.79 -3.925,-8.72 -8.722,-8.72"
         style="fill:#ececec;fill-opacity:1;fill-rule:nonzero;stroke:none"
         id="path306" />
      <path
         d="m 805.105,3455.16 v 0 c -4.156,-2.39 -9.515,-0.96 -11.914,3.2 l -29.082,50.36 c -2.398,4.16 -0.961,9.52 3.192,11.92 4.156,2.4 9.519,0.96 11.922,-3.19 l 29.074,-50.37 c 2.398,-4.15 0.965,-9.51 -3.192,-11.92"
         style="fill:#ececec;fill-opacity:1;fill-rule:nonzero;stroke:none"
         id="path308" />
      <path
         d="m 715.813,3362.1 v 0 c -2.399,-4.16 -7.758,-5.59 -11.915,-3.2 l -50.367,29.08 c -4.152,2.4 -5.59,7.76 -3.191,11.92 2.398,4.15 7.762,5.59 11.918,3.19 l 50.367,-29.07 c 4.148,-2.41 5.59,-7.77 3.188,-11.92"
         style="fill:#ececec;fill-opacity:1;fill-rule:nonzero;stroke:none"
         id="path310" />
      <path
         d="m 685.023,3236.85 v 0 c 0,-4.8 -3.925,-8.72 -8.726,-8.72 h -58.156 c -4.797,0 -8.723,3.92 -8.723,8.72 0,4.8 3.926,8.72 8.723,8.72 h 58.156 c 4.801,0 8.726,-3.92 8.726,-8.72"
         style="fill:#ececec;fill-opacity:1;fill-rule:nonzero;stroke:none"
         id="path312" />
      <path
         d="m 720.973,3112.99 v 0 c 2.402,-4.16 0.965,-9.52 -3.188,-11.92 l -50.367,-29.08 c -4.16,-2.4 -9.52,-0.96 -11.918,3.2 -2.398,4.15 -0.961,9.51 3.195,11.91 l 50.364,29.08 c 4.156,2.4 9.515,0.97 11.914,-3.19"
         style="fill:#ececec;fill-opacity:1;fill-rule:nonzero;stroke:none"
         id="path314" />
      <path
         d="m 814.047,3023.7 v 0 c 4.152,-2.4 5.59,-7.77 3.191,-11.92 l -29.078,-50.37 c -2.402,-4.15 -7.762,-5.59 -11.918,-3.19 -4.156,2.4 -5.59,7.76 -3.191,11.92 l 29.074,50.36 c 2.402,4.16 7.766,5.6 11.922,3.2"
         style="fill:#ececec;fill-opacity:1;fill-rule:nonzero;stroke:none"
         id="path316" />
      <path
         d="m 939.289,2992.9 v 0 c 4.801,0 8.727,-3.92 8.727,-8.72 v -58.16 c 0,-4.8 -3.926,-8.72 -8.727,-8.72 -4.797,0 -8.726,3.92 -8.726,8.72 v 58.16 c 0,4.8 3.929,8.72 8.726,8.72"
         style="fill:#ececec;fill-opacity:1;fill-rule:nonzero;stroke:none"
         id="path318" />
      <path
         d="m 1063.15,3028.86 v 0 c 4.16,2.4 9.52,0.96 11.92,-3.19 l 29.08,-50.37 c 2.4,-4.16 0.96,-9.52 -3.2,-11.92 -4.15,-2.4 -9.51,-0.96 -11.91,3.19 l -29.08,50.37 c -2.4,4.16 -0.96,9.52 3.19,11.92"
         style="fill:#ececec;fill-opacity:1;fill-rule:nonzero;stroke:none"
         id="path320" />
      <path
         d="m 1152.44,3121.93 v 0 c 2.4,4.15 7.77,5.59 11.92,3.19 l 50.37,-29.08 c 4.15,-2.4 5.59,-7.76 3.19,-11.92 -2.4,-4.15 -7.76,-5.59 -11.92,-3.19 l -50.36,29.08 c -4.16,2.4 -5.59,7.76 -3.2,11.92"
         style="fill:#ececec;fill-opacity:1;fill-rule:nonzero;stroke:none"
         id="path322" />
      <path
         d="m 1183.24,3247.17 v 0 c 0,4.8 3.93,8.73 8.72,8.73 h 58.16 c 4.8,0 8.72,-3.93 8.72,-8.73 0,-4.8 -3.92,-8.72 -8.72,-8.72 h -58.16 c -4.79,0 -8.72,3.92 -8.72,8.72"
         style="fill:#ececec;fill-opacity:1;fill-rule:nonzero;stroke:none"
         id="path324" />
      <path
         d="m 1147.28,3371.04 v 0 c -2.4,4.15 -0.96,9.51 3.2,11.91 l 50.36,29.08 c 4.16,2.4 9.52,0.96 11.92,-3.2 2.4,-4.15 0.96,-9.51 -3.19,-11.91 l -50.37,-29.08 c -4.15,-2.4 -9.52,-0.96 -11.92,3.2"
         style="fill:#ececec;fill-opacity:1;fill-rule:nonzero;stroke:none"
         id="path326" />
      <path
         d="m 1054.22,3460.32 v 0 c -4.16,2.41 -5.6,7.77 -3.2,11.92 l 29.08,50.37 c 2.4,4.15 7.76,5.59 11.92,3.19 4.15,-2.4 5.59,-7.76 3.19,-11.92 l -29.08,-50.36 c -2.4,-4.16 -7.76,-5.59 -11.91,-3.2"
         style="fill:#ececec;fill-opacity:1;fill-rule:nonzero;stroke:none"
         id="path328" />
      <path
         d="m 936.109,3228.47 h -2.023 c -8.508,0 -15.465,6.96 -15.465,15.47 v 187.61 c 0,8.51 6.957,15.47 15.465,15.47 h 2.023 c 8.508,0 15.469,-6.96 15.469,-15.47 v -187.61 c 0,-8.51 -6.961,-15.47 -15.469,-15.47"
         style="fill:#dd3139;fill-opacity:1;fill-rule:nonzero;stroke:none"
         id="path330" />
      <path
         d="m 916.598,3241.34 v 0 c 0,11.05 9.039,20.09 20.086,20.09 h 124.236 c 11.05,0 20.09,-9.04 20.09,-20.09 0,-11.05 -9.04,-20.08 -20.09,-20.08 H 936.684 c -11.047,0 -20.086,9.03 -20.086,20.08"
         style="fill:#dd3139;fill-opacity:1;fill-rule:nonzero;stroke:none"
         id="path332" />
      <path
         d="m 973.867,3241.04 c 0,-20.07 -16.273,-36.35 -36.344,-36.35 -20.074,0 -36.347,16.28 -36.347,36.35 0,20.08 16.273,36.35 36.347,36.35 20.071,0 36.344,-16.27 36.344,-36.35"
         style="fill:#3449a5;fill-opacity:1;fill-rule:nonzero;stroke:none"
         id="path334" />
      <path
         d="m 955.91,3240.78 c 0,-10.56 -8.562,-19.12 -19.133,-19.12 -10.562,0 -19.129,8.56 -19.129,19.12 0,10.57 8.567,19.13 19.129,19.13 10.571,0 19.133,-8.56 19.133,-19.13"
         style="fill:#7ca0da;fill-opacity:1;fill-rule:nonzero;stroke:none"
         id="path336" />
      <path
         d="m 4270.94,459.469 c 0,-69.797 -254.59,-126.367 -568.65,-126.367 -314.06,0 -568.65,56.57 -568.65,126.367 0,69.781 254.59,126.363 568.65,126.363 314.06,0 568.65,-56.582 568.65,-126.363"
         style="fill:#ebebea;fill-opacity:1;fill-rule:nonzero;stroke:none"
         id="path338" />
      <path
         d="m 4187.95,1623.43 v 0 l -0.5,-1.26 -0.02,-0.03 -0.6,-1.08 -0.06,-0.07 -0.72,-0.89 -0.13,-0.1 -0.82,-0.71 -0.23,-0.13 -0.9,-0.52 -0.41,-0.17 -0.92,-0.35 -0.76,-0.17 -0.8,-0.19 -1.81,-0.21 -0.95,0.03 -0.74,0.17 -0.14,0.04 -1.58,0.94 c -7.04,6.01 -6.58,33.55 -9,48.6 -0.16,0.98 -0.31,1.91 -0.47,2.79 l -0.03,0.16 -0.45,2.39 -0.05,0.27 -0.43,2.09 -0.06,0.26 -0.41,1.83 -0.06,0.25 -0.42,1.59 -0.05,0.23 -0.4,1.37 -0.06,0.19 -0.4,1.19 -0.05,0.13 -0.4,1.01 -0.03,0.08 -0.4,0.86 -0.01,0.01 -1.19,1.57 -0.01,0.01 -0.36,0.19 h -0.01 l -0.35,0.03 h -0.01 l -0.32,-0.11 h -0.01 l -0.3,-0.23 -0.25,-0.29 c -1.6,-2.21 -2.21,-38.44 -1.31,-54.75 0.61,-11.35 1.79,-27.29 -1.37,-36.06 l -0.53,-1.3 -0.07,-0.13 -0.55,-1.09 -0.08,-0.13 -1.5,-1.94 -0.08,-0.07 -0.76,-0.61 -0.27,-0.17 -0.67,-0.37 -0.33,-0.14 -0.75,-0.23 -0.32,-0.09 -1.15,-0.13 -1.28,0.09 -0.28,0.06 -1.05,0.31 -0.12,0.04 -2.2,1.54 -0.05,0.05 -0.59,0.64 -0.01,0.03 c -5.2,6.37 -6.13,22.79 -7.26,38.65 l -0.02,0.24 -0.12,1.57 -0.05,0.65 -0.1,1.36 -0.04,0.64 -0.16,1.96 c -1.82,22.02 1.63,43.09 -3.66,43.29 -5.3,0.2 -8.37,-81.08 -8.98,-87.11 -0.42,-4.13 -0.9,-14.63 -4.3,-20.86 l -0.62,-1.02 -0.06,-0.07 -0.56,-0.79 -0.17,-0.19 -0.54,-0.61 -0.17,-0.17 -0.73,-0.63 -0.03,-0.03 -0.83,-0.52 -0.22,-0.11 -0.65,-0.28 -0.31,-0.11 -0.68,-0.17 -0.29,-0.06 -1.04,-0.08 -1.02,0.07 -0.31,0.05 -0.68,0.16 -0.29,0.09 -0.7,0.27 -0.19,0.08 -0.83,0.49 -0.05,0.04 -0.72,0.55 -0.16,0.15 -0.58,0.58 -0.13,0.15 -1.25,1.77 h -0.01 c -3.4,5.78 -3.86,15.88 -4.06,22.09 -0.27,9.09 0.04,34.44 1.6,55.58 1.56,21.15 2.19,27.94 -1.18,28.82 l -0.26,-0.04 -0.16,-0.07 c -3.74,-2.58 -13.61,-47.72 -16.79,-64.64 -1.91,-10.08 -5.15,-19.44 -9.47,-24.6 -0.8,-0.95 -1.63,-1.75 -2.49,-2.4 l -0.04,-0.02 -0.55,-0.39 -0.18,-0.1 -0.5,-0.3 -0.23,-0.11 -0.5,-0.23 -0.26,-0.1 -0.48,-0.18 -0.29,-0.07 -0.78,-0.16 -0.43,-0.06 -0.37,-0.02 h -0.45 l -0.37,0.02 -0.47,0.05 -0.36,0.05 -0.51,0.12 -0.34,0.09 -0.57,0.19 -0.29,0.11 -0.87,0.41 -0.78,0.51 -0.27,0.21 -0.41,0.39 -0.3,0.32 -0.49,0.62 c -6.22,9.02 1.85,37.92 5.55,55.37 4.07,19.16 11.13,52.21 10.89,65.84 -0.24,13.65 2.3,26.04 -4.81,24.85 -1.63,-0.18 -2.92,-0.26 -3.73,-0.3 -4.92,-0.18 -15.46,-8.49 -21.74,-15.83 -6.28,-7.33 -19.78,-10.98 -28.47,-10.59 -4.13,0.18 -7.45,1.49 -7.95,4.13 l -0.07,0.56 v 0.04 l 0.02,0.54 0.01,0.07 0.09,0.56 0.03,0.09 0.16,0.56 0.04,0.12 0.24,0.58 0.06,0.14 0.32,0.61 0.08,0.14 0.39,0.64 0.11,0.15 0.47,0.67 0.13,0.16 0.56,0.7 0.15,0.17 0.65,0.74 0.17,0.16 0.76,0.78 0.17,0.17 0.89,0.83 0.16,0.16 1.02,0.89 0.16,0.13 1.16,0.96 0.13,0.11 1.35,1.04 0.08,0.07 1.79,1.32 c 17.12,12.21 35.44,36.13 41.7,51.41 6.26,15.3 8.91,25.58 26.14,30.44 5.65,1.59 3.97,130.08 2.98,148.86 -0.99,18.78 77.27,11.03 76.7,-4.27 -0.58,-15.31 -18.45,-147.28 -10.75,-153.64 7.72,-6.35 11.22,-13.67 16.28,-39.99 2.53,-13.15 5.64,-38.63 7.96,-59.92 0,0 4.53,-40.12 4.71,-55.65 0.09,-8.11 0.34,-14.04 -0.93,-17.98"
         style="fill:#f4ac8d;fill-opacity:1;fill-rule:nonzero;stroke:none"
         id="path340" />
      <path
         d="m 3819.95,2648.03 c 0,0 196.75,37 279.77,-201.14 70.52,-202.29 103.5,-231 97.23,-336.57 -6.27,-105.58 -23.34,-293.54 -23.34,-293.54 l -95.51,16.62 -20.41,382.45 c -0.23,4.25 -1.9,8.25 -4.79,11.38 -36.68,39.68 -287.19,316.66 -232.95,420.8"
         style="fill:#f68935;fill-opacity:1;fill-rule:nonzero;stroke:none"
         id="path342" />
      <path
         d="m 3650.11,416.25 c -7.8,-19.391 -21.38,-33.352 -42.61,-35.93 -48.53,-5.808 -277.45,20.61 -289.37,77.719 -0.97,4.75 -1.66,9.191 -1.84,13.352 -3.06,45.898 36.15,57.648 79.74,52.98 47.63,-5.141 118.16,5.84 118.16,5.84 l 142.15,-25 c 4.55,-30.223 3.91,-64.07 -6.23,-88.961"
         style="fill:#dd3139;fill-opacity:1;fill-rule:nonzero;stroke:none"
         id="path344" />
      <path
         d="m 3590.23,379.531 c -70.83,0 -261.26,26.559 -272.1,78.508 -0.97,4.75 -1.66,9.191 -1.84,13.352 15.13,-4.801 29.69,-15.711 42.49,-22.102 49.77,-24.937 105.27,-37.047 160.66,-39.918 8.23,-0.391 16.48,-0.59 24.73,-0.59 22.41,0 44.81,1.438 67.02,4.168 12.64,1.531 25.99,3.289 38.92,3.301 -7.8,-19.391 -21.38,-33.352 -42.61,-35.93 -4.38,-0.531 -10.24,-0.789 -17.27,-0.789"
         style="fill:#d5282d;fill-opacity:1;fill-rule:nonzero;stroke:none"
         id="path346" />
      <path
         d="m 4087.6,456.469 c -7.81,-19.379 -21.39,-33.348 -42.62,-35.918 -48.52,-5.809 -277.45,20.609 -289.36,77.719 -0.97,4.75 -1.66,9.191 -1.85,13.351 -3.05,45.899 36.15,57.649 79.74,52.988 47.64,-5.16 118.17,5.832 118.17,5.832 l 142.15,-25 c 4.54,-30.23 3.9,-64.082 -6.23,-88.972"
         style="fill:#dd3139;fill-opacity:1;fill-rule:nonzero;stroke:none"
         id="path348" />
      <path
         d="m 4027.71,419.77 c -70.84,0 -261.26,26.55 -272.09,78.5 -0.97,4.75 -1.66,9.191 -1.85,13.351 15.13,-4.812 29.7,-15.711 42.5,-22.101 49.76,-24.938 105.26,-37.04 160.65,-39.911 8.25,-0.398 16.52,-0.597 24.78,-0.597 22.4,0 44.78,1.437 66.97,4.168 12.64,1.531 26,3.289 38.93,3.289 -7.81,-19.379 -21.39,-33.348 -42.62,-35.918 -4.38,-0.52 -10.24,-0.781 -17.27,-0.781"
         style="fill:#d5282d;fill-opacity:1;fill-rule:nonzero;stroke:none"
         id="path350" />
      <path
         d="m 4103.22,544.43 -168.76,22.379 c 19.02,121.281 -55.18,448.921 -90.58,569.311 -15.15,51.69 -46.38,192.96 -77.12,337.29 -18.7,87.65 -37.17,176.46 -51.68,247.11 -5.32,25.82 -10.12,49.15 -14.22,69.18 -9.31,45.39 -15,73.56 -15,73.56 l 287.67,-56.1 c 0,0 3.3,-34.99 8.94,-89.43 16.76,-164.23 53.66,-504.76 80.05,-592.52 35.02,-116.81 40.7,-580.78 40.7,-580.78"
         style="fill:#25316a;fill-opacity:1;fill-rule:nonzero;stroke:none"
         id="path352" />
      <path
         d="m 3890.78,1798.52 c 0,0 -2.65,-38.18 -12.5,-89.31 -14.75,-77 -45.65,-183.3 -107.86,-232.63 -1.22,-1 -2.45,-2 -3.66,-3.17 -83.18,-75.69 -83.38,-413.97 -83.38,-413.97 0,0 10.45,-472.17 -25.64,-562.221 l -155.49,32.011 c 0,0 -16.85,599.04 -22.51,667.54 -4.75,57.46 -3.75,387.06 5.47,527.08 1.73,26.66 3.78,46.38 6.16,56.16 l 209.49,9.69 189.92,8.82"
         style="fill:#3449a5;fill-opacity:1;fill-rule:nonzero;stroke:none"
         id="path354" />
      <path
         d="m 3878.28,1709.21 v 0 c 2.83,14.66 5.06,28.25 6.8,40.18 30.49,5.29 58.47,12.73 82,22.95 3.55,1.54 6.64,3.7 9.22,6.31 1.51,-15.27 3.6,-36.07 6.17,-60.92 -14.79,-2.13 -29.67,-3.36 -44.53,-4.67 -19.82,-1.71 -39.81,-3.44 -59.66,-3.85 v 0"
         style="fill:#202856;fill-opacity:1;fill-rule:nonzero;stroke:none"
         id="path356" />
      <path
         d="m 3866.21,1709.04 c -14.91,0 -29.79,0.82 -44.55,3.01 -15.32,2.25 -30.34,5.84 -45.64,7.77 -10.19,1.26 -20.44,1.73 -30.72,1.73 -10.06,0 -20.15,-0.45 -30.22,-1.03 -3.34,-0.2 -6.58,-0.47 -9.92,-0.67 -33.05,-2.16 -66.05,-4.79 -99.21,-5.5 -12.84,-0.28 -27.6,-0.89 -42.93,-0.89 -26.49,0 -54.71,1.83 -77.81,10.39 0.83,12.9 1.74,24.17 2.73,33.47 3.48,-2.09 7.43,-3.51 11.69,-4.04 43.47,-5.36 135.22,-15.18 231.02,-15.18 21.54,0 43.31,0.5 64.75,1.65 v 0 0 c 31.03,1.7 61.43,4.74 89.68,9.64 -1.74,-11.93 -3.97,-25.52 -6.8,-40.18 v 0 c -4.02,-0.11 -8.05,-0.17 -12.07,-0.17"
         style="fill:#2b3e9c;fill-opacity:1;fill-rule:nonzero;stroke:none"
         id="path358" />
      <path
         d="m 3653.67,2774.15 7.83,-234.07 177.8,-37.14 c 0,0 -34.09,252.89 6.55,364.57 l -192.18,-93.36"
         style="fill:#f4ac8d;fill-opacity:1;fill-rule:nonzero;stroke:none"
         id="path360" />
      <path
         d="m 3655.54,2718.45 -0.15,4.17 c 0,0 0,0 0.01,0 l 0.14,-4.17"
         style="fill:#ffffff;fill-opacity:1;fill-rule:nonzero;stroke:none"
         id="path362" />
      <path
         d="m 3655.99,2705.22 -0.45,13.23 -0.14,4.17 c 0.69,0.21 110.5,33.87 140.35,89.87 0,0 -31.17,-105.53 -139.76,-107.27"
         style="fill:#ee8965;fill-opacity:1;fill-rule:nonzero;stroke:none"
         id="path364" />
      <path
         d="m 3620.05,3187.78 c 0,0 -80.52,-144.68 -68.98,-297.03 11.53,-152.35 90.99,-202.14 195.67,-159 104.68,43.16 135.67,237.09 108.96,333.1 -26.72,96.01 -120.79,162 -235.65,122.93"
         style="fill:#f4ac8d;fill-opacity:1;fill-rule:nonzero;stroke:none"
         id="path366" />
      <path
         d="m 2750.67,2936.62 0.44,1.26 c 0.19,2.85 1.81,5.61 5.5,8.51 4.77,3.74 8.81,4 12.67,2.05 l 1.12,2.25 c -4.1,7.34 -4.2,13.47 3.69,19.66 5.08,3.99 9.43,4.31 13.58,2.31 l 2.37,1.78 c -1.97,5.64 -0.78,10.65 5.71,15.75 9.42,7.39 16.29,2.62 23.92,-6.76 l 1.3,0.01 c 3.65,-0.12 -7.15,12.08 -24.17,40.57 -17.29,28.91 -40.64,60.67 -25.24,70.67 12.05,7.83 30.91,-19.42 49.92,-49.37 13.36,-21.07 35.93,-56.5 46.12,-70.37 8.13,-11.07 14.06,-26.33 19.4,-28.79 2.72,2.99 4.99,5.05 6.25,6.02 4.95,3.79 5.28,20.8 9.2,32.32 5.65,16.56 14.87,28.83 24.44,31.25 10.36,2.78 17.8,2.16 10.94,-19.56 -0.33,-1.08 -0.69,-2.18 -1.1,-3.35 l -0.01,-0.04 c -0.42,-1.2 -0.8,-2.45 -1.18,-3.7 -0.3,-1 -0.6,-2.01 -0.88,-3.03 -6.84,-24.73 -7.7,-58 -3.42,-76.55 4.68,-20.29 9.44,-32.83 -4.75,-50.37 -4.67,-5.77 90.61,-136.86 105.31,-155.47 14.7,-18.61 -63.56,-61.08 -74.11,-44.89 -10.55,16.19 -96.22,158.55 -108.79,159.47 -12.56,0.93 -21.5,5.92 -45.88,29.33 -12.05,11.57 -58.42,67.98 -52.35,89.04"
         style="fill:#f4ac8d;fill-opacity:1;fill-rule:nonzero;stroke:none"
         id="path368" />
      <path
         d="m 3671.72,2649.33 -493.2,-24.42 -225.38,191.92 -74.32,-43.21 c 0,0 119.25,-237.08 190.83,-280.15 71.58,-43.06 512.9,-148.09 512.9,-148.09 l 89.17,303.95"
         style="fill:#f68935;fill-opacity:1;fill-rule:nonzero;stroke:none"
         id="path370" />
      <path
         d="m 3964.1,2140.14 c -20.1,-82.42 9.37,-271.78 20.29,-335.68 2.25,-13.4 -4.75,-26.66 -17.31,-32.12 -45.34,-19.7 -107.17,-29.06 -171.68,-32.59 -116.81,-6.3 -242.53,6.97 -295.77,13.53 -14.96,1.87 -26.16,14.61 -26.01,29.68 1.33,122.44 7.47,636.48 17.84,742.65 11.79,120.68 180.27,123.72 180.27,123.72 90.54,19.34 157.28,17.66 205.39,5.76 62.74,-15.52 93.61,-48.56 103.78,-75.46 13.39,-35.39 7.59,-339.53 -16.8,-439.49"
         style="fill:#f68935;fill-opacity:1;fill-rule:nonzero;stroke:none"
         id="path372" />
      <path
         d="m 3795.4,1739.75 c 6.45,15.09 19.24,26.62 29.81,39.37 45.67,55.23 49.27,132.53 56.73,203.76 5.69,54.89 14.94,109.32 27.52,163.06 10.46,44.56 23.34,88.83 28.66,134.36 7.27,61.55 0.57,123.76 -5.98,185.33 -5.25,49.64 -11.19,100.78 -30.34,147.31 -4,9.74 -17.46,27.12 -24.68,42.15 62.74,-15.52 93.61,-48.56 103.78,-75.46 4.69,-12.41 7.03,-57.85 7.03,-115.94 0.01,-47.41 -1.55,-103.26 -4.64,-156.45 -3.92,-67.53 -10.33,-130.78 -19.19,-167.1 -4.89,-20.04 -6.84,-46.4 -6.85,-75.75 -0.02,-91.34 18.87,-211.57 27.14,-259.93 0.28,-1.68 0.42,-3.35 0.42,-5 0,-11.59 -6.74,-22.34 -17.73,-27.12 -45.34,-19.7 -107.17,-29.06 -171.68,-32.59"
         style="fill:#f47229;fill-opacity:1;fill-rule:nonzero;stroke:none"
         id="path374" />
      <path
         d="m 3881.1,3145.01 c 24.35,-38.88 9.87,-89.98 -28.21,-115.56 -36.16,-24.31 -100.69,-42.8 -212.21,-13.34 -212.97,56.25 -158.17,228.2 -158.17,228.2 0,0 56.89,-41.1 116.19,-61.89 0,0 -56.88,41.1 -56.4,102.82 0,0 56.48,-44.48 170.34,-68.33 81.33,-17.04 142.14,-29.89 168.46,-71.9"
         style="fill:#1c2247;fill-opacity:1;fill-rule:nonzero;stroke:none"
         id="path376" />
      <path
         d="m 3881.1,3145.01 c 0,0 137.19,-118.03 -9.4,-308.19 -146.58,-190.17 -369.47,386.59 9.4,308.19"
         style="fill:#1c2247;fill-opacity:1;fill-rule:nonzero;stroke:none"
         id="path378" />
      <path
         d="m 3755.59,2895.56 c -2.56,-22.3 -22.72,-38.3 -45.01,-35.73 -22.31,2.56 -38.3,22.72 -35.74,45.02 2.56,22.3 22.71,38.3 45.02,35.73 22.3,-2.56 38.3,-22.72 35.73,-45.02"
         style="fill:#f4ac8d;fill-opacity:1;fill-rule:nonzero;stroke:none"
         id="path380" />
      <path
         d="m 1045.94,553.391 c 0,-45.762 -166.889,-82.84 -372.768,-82.84 -205.879,0 -372.774,37.078 -372.774,82.84 0,45.75 166.895,82.839 372.774,82.839 205.879,0 372.768,-37.089 372.768,-82.839"
         style="fill:#ebebea;fill-opacity:1;fill-rule:nonzero;stroke:none"
         id="path382" />
      <path
         d="m 146.168,1462.58 c 0,0 122.687,-364.97 419.746,-411.65 0,0 95.172,496.4 -419.746,411.65"
         style="fill:#42a288;fill-opacity:1;fill-rule:nonzero;stroke:none"
         id="path384" />
      <path
         d="m 634.301,725.551 c -1.297,0.058 -2.293,1.16 -2.235,2.461 10.868,240.148 -112.113,422.668 -217.187,533.488 -113.93,120.18 -231.883,184.27 -233.066,184.9 -1.137,0.61 -1.563,2.03 -0.946,3.17 0.613,1.14 2.028,1.57 3.168,0.94 1.184,-0.62 119.793,-65.08 234.242,-185.79 105.7,-111.48 229.399,-295.13 218.469,-536.931 -0.066,-1.289 -1.152,-2.289 -2.445,-2.238"
         style="fill:#1c264a;fill-opacity:1;fill-rule:nonzero;stroke:none"
         id="path386" />
      <path
         d="m 220.973,1348.04 c -1.047,0.05 -1.973,0.81 -2.188,1.89 -0.254,1.26 0.567,2.5 1.836,2.75 l 79.406,15.89 c 1.266,0.26 2.496,-0.58 2.754,-1.83 0.254,-1.27 -0.566,-2.5 -1.836,-2.76 l -79.406,-15.89 -0.566,-0.05"
         style="fill:#1c264a;fill-opacity:1;fill-rule:nonzero;stroke:none"
         id="path388" />
      <path
         d="m 363.543,1313.55 c -1.223,0.06 -2.207,1.06 -2.23,2.29 l -2.43,118.53 c -0.024,1.3 0.996,2.37 2.293,2.39 1.332,-0.02 2.359,-0.99 2.387,-2.29 l 2.425,-118.53 c 0.024,-1.29 -0.996,-2.36 -2.289,-2.39 h -0.156"
         style="fill:#1c264a;fill-opacity:1;fill-rule:nonzero;stroke:none"
         id="path390" />
      <path
         d="m 327.516,1223.25 c -0.996,0.05 -1.887,0.72 -2.157,1.74 -0.332,1.25 0.414,2.53 1.661,2.86 l 97.781,25.96 c 1.258,0.33 2.539,-0.42 2.867,-1.66 0.332,-1.25 -0.414,-2.53 -1.66,-2.87 l -97.781,-25.95 -0.711,-0.08"
         style="fill:#1c264a;fill-opacity:1;fill-rule:nonzero;stroke:none"
         id="path392" />
      <path
         d="m 500.836,1159.45 h -0.027 c -1.289,0.07 -2.278,1.18 -2.204,2.47 l 7.211,125.11 c 0.079,1.29 1.286,2.11 2.473,2.2 1.293,-0.08 2.274,-1.19 2.207,-2.48 l -7.219,-125.1 c -0.078,-1.28 -1.16,-2.26 -2.441,-2.2"
         style="fill:#1c264a;fill-opacity:1;fill-rule:nonzero;stroke:none"
         id="path394" />
      <path
         d="m 529.832,1114.37 -79.309,3.6 c -1.293,0.05 -2.289,1.15 -2.23,2.44 0.059,1.29 1.148,2.28 2.441,2.23 l 79.309,-3.59 c 1.293,-0.06 2.289,-1.15 2.23,-2.44 -0.058,-1.29 -1.148,-2.3 -2.441,-2.24"
         style="fill:#1c264a;fill-opacity:1;fill-rule:nonzero;stroke:none"
         id="path396" />
      <path
         d="m 1197.17,1474.25 c 0,0 -155.14,-352.4 -455.193,-372.07 0,0 -49.961,502.96 455.193,372.07"
         style="fill:#42a288;fill-opacity:1;fill-rule:nonzero;stroke:none"
         id="path398" />
      <path
         d="m 644.492,784.301 c 1.297,-0.051 2.387,0.949 2.442,2.238 10.867,240.161 149.816,410.831 264.468,511.721 124.318,109.38 247.578,162.57 248.808,163.09 1.19,0.51 1.74,1.88 1.23,3.07 -0.51,1.19 -1.88,1.75 -3.06,1.23 -1.24,-0.52 -125.19,-54 -250.067,-163.88 C 792.98,1200.28 653.199,1028.55 642.262,786.762 c -0.059,-1.301 0.937,-2.403 2.23,-2.461"
         style="fill:#1c264a;fill-opacity:1;fill-rule:nonzero;stroke:none"
         id="path400" />
      <path
         d="m 1112.33,1366.94 c 1.05,-0.05 2.04,0.62 2.35,1.67 0.37,1.24 -0.34,2.54 -1.58,2.91 l -77.64,22.99 c -1.24,0.38 -2.54,-0.34 -2.91,-1.58 -0.37,-1.23 0.33,-2.54 1.58,-2.9 l 77.64,-23 0.56,-0.09"
         style="fill:#1c264a;fill-opacity:1;fill-rule:nonzero;stroke:none"
         id="path402" />
      <path
         d="m 967.234,1345.46 c 1.219,-0.06 2.289,0.85 2.426,2.08 l 13.121,117.82 c 0.141,1.29 -0.781,2.44 -2.066,2.59 -1.328,0.1 -2.442,-0.79 -2.586,-2.06 l -13.121,-117.84 c -0.137,-1.29 0.785,-2.44 2.07,-2.58 l 0.156,-0.01"
         style="fill:#1c264a;fill-opacity:1;fill-rule:nonzero;stroke:none"
         id="path404" />
      <path
         d="m 994.957,1252.26 c 0.996,-0.04 1.949,0.56 2.305,1.55 0.445,1.21 -0.18,2.55 -1.395,2.99 l -95.039,34.68 c -1.223,0.44 -2.57,-0.18 -3,-1.39 -0.441,-1.22 0.184,-2.56 1.395,-3 l 95.039,-34.68 0.695,-0.15"
         style="fill:#1c264a;fill-opacity:1;fill-rule:nonzero;stroke:none"
         id="path406" />
      <path
         d="m 816.586,1204.37 h 0.027 c 1.293,-0.04 2.375,0.98 2.418,2.27 l 4.11,125.24 c 0.039,1.29 -1.082,2.22 -2.258,2.41 -1.297,0.05 -2.375,-0.96 -2.418,-2.25 l -4.113,-125.25 c -0.039,-1.29 0.953,-2.36 2.234,-2.42"
         style="fill:#1c264a;fill-opacity:1;fill-rule:nonzero;stroke:none"
         id="path408" />
      <path
         d="m 783.641,1162.11 79.304,-3.6 c 1.293,-0.05 2.391,0.95 2.442,2.24 0.062,1.29 -0.938,2.38 -2.231,2.44 l -79.304,3.59 c -1.289,0.06 -2.383,-0.94 -2.446,-2.23 -0.054,-1.29 0.942,-2.39 2.235,-2.44"
         style="fill:#1c264a;fill-opacity:1;fill-rule:nonzero;stroke:none"
         id="path410" />
      <path
         d="m 485.145,1786.31 c 0,0 -143.493,-393.45 179.371,-621.68 0,0 226.711,397.79 -179.371,621.68"
         style="fill:#4bc07e;fill-opacity:1;fill-rule:nonzero;stroke:none"
         id="path412" />
      <path
         d="m 675.504,712.672 -0.149,0.008 c -1.289,0.14 -2.218,1.3 -2.078,2.582 56.184,516.448 -172.718,1034.098 -175.039,1039.278 -0.527,1.17 -0.004,2.56 1.18,3.08 1.156,0.53 2.559,0.01 3.09,-1.17 2.324,-5.18 231.746,-524 175.426,-1041.688 -0.133,-1.242 -1.207,-2.153 -2.43,-2.09"
         style="fill:#1c264a;fill-opacity:1;fill-rule:nonzero;stroke:none"
         id="path414" />
      <path
         d="M 619.301,1663.38 575.809,1551.59"
         style="fill:#4bc07e;fill-opacity:1;fill-rule:nonzero;stroke:none"
         id="path416" />
      <path
         d="m 575.703,1549.25 -0.738,0.16 c -1.207,0.47 -1.805,1.83 -1.336,3.03 l 43.492,111.79 c 0.469,1.19 1.832,1.78 3.027,1.32 1.207,-0.47 1.801,-1.82 1.332,-3.02 l -43.492,-111.78 c -0.371,-0.96 -1.304,-1.53 -2.285,-1.5"
         style="fill:#1c264a;fill-opacity:1;fill-rule:nonzero;stroke:none"
         id="path418" />
      <path
         d="M 488.063,1483.37 600.57,1455.94"
         style="fill:#4bc07e;fill-opacity:1;fill-rule:nonzero;stroke:none"
         id="path420" />
      <path
         d="m 600.465,1453.6 -0.453,0.07 -112.504,27.42 c -1.254,0.3 -2.028,1.57 -1.719,2.83 0.309,1.26 1.547,2.04 2.832,1.72 l 112.504,-27.43 c 1.254,-0.3 2.023,-1.56 1.715,-2.82 -0.27,-1.11 -1.281,-1.84 -2.375,-1.79"
         style="fill:#1c264a;fill-opacity:1;fill-rule:nonzero;stroke:none"
         id="path422" />
      <path
         d="M 703.703,1416.48 633.531,1335"
         style="fill:#4bc07e;fill-opacity:1;fill-rule:nonzero;stroke:none"
         id="path424" />
      <path
         d="m 633.43,1332.65 -1.422,0.57 c -0.981,0.84 -1.086,2.32 -0.246,3.3 l 70.164,81.48 c 0.851,0.98 2.324,1.08 3.301,0.25 0.988,-0.84 1.089,-2.33 0.25,-3.3 l -70.168,-81.49 -1.879,-0.81"
         style="fill:#1c264a;fill-opacity:1;fill-rule:nonzero;stroke:none"
         id="path426" />
      <path
         d="m 650.551,1240.47 -0.91,0.22 -62.524,30.11 c -1.164,0.55 -1.652,1.95 -1.094,3.11 0.563,1.17 1.954,1.66 3.125,1.1 l 62.524,-30.1 c 1.164,-0.56 1.656,-1.95 1.094,-3.13 -0.418,-0.87 -1.309,-1.35 -2.215,-1.31"
         style="fill:#1c264a;fill-opacity:1;fill-rule:nonzero;stroke:none"
         id="path428" />
      <path
         d="m 546.781,1633.14 -0.91,0.24 -62.527,30.09 c -1.164,0.56 -1.656,1.97 -1.098,3.13 0.563,1.17 1.945,1.65 3.125,1.09 l 62.527,-30.1 c 1.168,-0.56 1.657,-1.96 1.094,-3.12 -0.418,-0.88 -1.304,-1.37 -2.211,-1.33"
         style="fill:#1c264a;fill-opacity:1;fill-rule:nonzero;stroke:none"
         id="path430" />
      <path
         d="m 803.656,821.102 -2.297,-17.653 -1.308,-10.051 -33.844,-260.777 H 546.395 l -33.844,260.777 -1.313,10.051 -2.297,17.653 h 294.715"
         style="fill:#f9a611;fill-opacity:1;fill-rule:nonzero;stroke:none"
         id="path432" />
      <path
         d="m 475.715,803.461 h 363.203 v 102.75 H 475.715 Z"
         style="fill:#f9a611;fill-opacity:1;fill-rule:nonzero;stroke:none"
         id="path434" />
      <path
         d="m 800.051,793.398 h -287.5 l -1.313,10.051 h 290.121 l -1.308,-10.051"
         style="fill:#f68512;fill-opacity:1;fill-rule:nonzero;stroke:none"
         id="path436" />
    </g>
  </g>
</svg>
